<svg width="1363" height="297" viewBox="0 0 1363 297" fill="none" xmlns="http://www.w3.org/2000/svg">
<path d="M0 15C0 6.71573 6.71573 0 15 0H37V297H15C6.71573 297 0 290.284 0 282V15Z" fill="#2563EB"/>
<path d="M37 0H1066V297H37V0Z" fill="#F0F0F0"/>
<path d="M97.6934 49.4062H102.158L108.732 68.1973L115.307 49.4062H119.771L110.525 75H106.939L97.6934 49.4062ZM95.2852 49.4062H99.7324L100.541 67.7227V75H95.2852V49.4062ZM117.732 49.4062H122.197V75H116.924V67.7227L117.732 49.4062ZM137.754 70.4473V55.9805H142.816V75H138.053L137.754 70.4473ZM138.316 66.5449L139.811 66.5098C139.811 67.7754 139.664 68.9531 139.371 70.043C139.078 71.1211 138.639 72.0586 138.053 72.8555C137.467 73.6406 136.729 74.2559 135.838 74.7012C134.947 75.1348 133.898 75.3516 132.691 75.3516C131.766 75.3516 130.91 75.2227 130.125 74.9648C129.352 74.6953 128.684 74.2793 128.121 73.7168C127.57 73.1426 127.137 72.4102 126.82 71.5195C126.516 70.6172 126.363 69.5332 126.363 68.2676V55.9805H131.426V68.3027C131.426 68.8652 131.49 69.3398 131.619 69.7266C131.76 70.1133 131.953 70.4297 132.199 70.6758C132.445 70.9219 132.732 71.0977 133.061 71.2031C133.4 71.3086 133.775 71.3613 134.186 71.3613C135.229 71.3613 136.049 71.1504 136.646 70.7285C137.256 70.3066 137.684 69.7324 137.93 69.0059C138.188 68.2676 138.316 67.4473 138.316 66.5449ZM156.967 69.7441C156.967 69.3809 156.861 69.0527 156.65 68.7598C156.439 68.4668 156.047 68.1973 155.473 67.9512C154.91 67.6934 154.096 67.459 153.029 67.248C152.068 67.0371 151.172 66.7734 150.34 66.457C149.52 66.1289 148.805 65.7363 148.195 65.2793C147.598 64.8223 147.129 64.2832 146.789 63.6621C146.449 63.0293 146.279 62.3086 146.279 61.5C146.279 60.7031 146.449 59.9531 146.789 59.25C147.141 58.5469 147.639 57.9258 148.283 57.3867C148.939 56.8359 149.736 56.4082 150.674 56.1035C151.623 55.7871 152.689 55.6289 153.873 55.6289C155.525 55.6289 156.943 55.8926 158.127 56.4199C159.322 56.9473 160.236 57.6738 160.869 58.5996C161.514 59.5137 161.836 60.5566 161.836 61.7285H156.773C156.773 61.2363 156.668 60.7969 156.457 60.4102C156.258 60.0117 155.941 59.7012 155.508 59.4785C155.086 59.2441 154.535 59.127 153.855 59.127C153.293 59.127 152.807 59.2266 152.396 59.4258C151.986 59.6133 151.67 59.8711 151.447 60.1992C151.236 60.5156 151.131 60.8672 151.131 61.2539C151.131 61.5469 151.189 61.8105 151.307 62.0449C151.436 62.2676 151.641 62.4727 151.922 62.6602C152.203 62.8477 152.566 63.0234 153.012 63.1875C153.469 63.3398 154.031 63.4805 154.699 63.6094C156.07 63.8906 157.295 64.2598 158.373 64.7168C159.451 65.1621 160.307 65.7715 160.939 66.5449C161.572 67.3066 161.889 68.3086 161.889 69.5508C161.889 70.3945 161.701 71.168 161.326 71.8711C160.951 72.5742 160.412 73.1895 159.709 73.7168C159.006 74.2324 158.162 74.6367 157.178 74.9297C156.205 75.2109 155.109 75.3516 153.891 75.3516C152.121 75.3516 150.621 75.0352 149.391 74.4023C148.172 73.7695 147.246 72.9668 146.613 71.9941C145.992 71.0098 145.682 70.002 145.682 68.9707H150.48C150.504 69.6621 150.68 70.2188 151.008 70.6406C151.348 71.0625 151.775 71.3672 152.291 71.5547C152.818 71.7422 153.387 71.8359 153.996 71.8359C154.652 71.8359 155.197 71.748 155.631 71.5723C156.064 71.3848 156.393 71.1387 156.615 70.834C156.85 70.5176 156.967 70.1543 156.967 69.7441ZM174.492 55.9805V59.5664H163.418V55.9805H174.492ZM166.16 51.2871H171.223V69.2695C171.223 69.8203 171.293 70.2422 171.434 70.5352C171.586 70.8281 171.809 71.0332 172.102 71.1504C172.395 71.2559 172.764 71.3086 173.209 71.3086C173.525 71.3086 173.807 71.2969 174.053 71.2734C174.311 71.2383 174.527 71.2031 174.703 71.168L174.721 74.8945C174.287 75.0352 173.818 75.1465 173.314 75.2285C172.811 75.3105 172.254 75.3516 171.645 75.3516C170.531 75.3516 169.559 75.1699 168.727 74.8066C167.906 74.4316 167.273 73.834 166.828 73.0137C166.383 72.1934 166.16 71.1152 166.16 69.7793V51.2871ZM187.641 70.7109V62.2383C187.641 61.6289 187.541 61.1074 187.342 60.6738C187.143 60.2285 186.832 59.8828 186.41 59.6367C186 59.3906 185.467 59.2676 184.811 59.2676C184.248 59.2676 183.762 59.3672 183.352 59.5664C182.941 59.7539 182.625 60.0293 182.402 60.3926C182.18 60.7441 182.068 61.1602 182.068 61.6406H177.006C177.006 60.832 177.193 60.0645 177.568 59.3379C177.943 58.6113 178.488 57.9727 179.203 57.4219C179.918 56.8594 180.768 56.4199 181.752 56.1035C182.748 55.7871 183.861 55.6289 185.092 55.6289C186.568 55.6289 187.881 55.875 189.029 56.3672C190.178 56.8594 191.08 57.5977 191.736 58.582C192.404 59.5664 192.738 60.7969 192.738 62.2734V70.4121C192.738 71.4551 192.803 72.3105 192.932 72.9785C193.061 73.6348 193.248 74.209 193.494 74.7012V75H188.379C188.133 74.4844 187.945 73.8398 187.816 73.0664C187.699 72.2812 187.641 71.4961 187.641 70.7109ZM188.309 63.416L188.344 66.2812H185.514C184.846 66.2812 184.266 66.3574 183.773 66.5098C183.281 66.6621 182.877 66.8789 182.561 67.1602C182.244 67.4297 182.01 67.7461 181.857 68.1094C181.717 68.4727 181.646 68.8711 181.646 69.3047C181.646 69.7383 181.746 70.1309 181.945 70.4824C182.145 70.8223 182.432 71.0918 182.807 71.291C183.182 71.4785 183.621 71.5723 184.125 71.5723C184.887 71.5723 185.549 71.4199 186.111 71.1152C186.674 70.8105 187.107 70.4355 187.412 69.9902C187.729 69.5449 187.893 69.123 187.904 68.7246L189.24 70.8691C189.053 71.3496 188.795 71.8477 188.467 72.3633C188.15 72.8789 187.746 73.3652 187.254 73.8223C186.762 74.2676 186.17 74.6367 185.479 74.9297C184.787 75.2109 183.967 75.3516 183.018 75.3516C181.811 75.3516 180.715 75.1113 179.73 74.6309C178.758 74.1387 177.984 73.4648 177.41 72.6094C176.848 71.7422 176.566 70.7578 176.566 69.6562C176.566 68.6602 176.754 67.7754 177.129 67.002C177.504 66.2285 178.055 65.5781 178.781 65.0508C179.52 64.5117 180.439 64.1074 181.541 63.8379C182.643 63.5566 183.92 63.416 185.373 63.416H188.309ZM203.092 75H197.994V54.293C197.994 52.8516 198.275 51.6387 198.838 50.6543C199.412 49.6582 200.215 48.9082 201.246 48.4043C202.289 47.8887 203.525 47.6309 204.955 47.6309C205.424 47.6309 205.875 47.666 206.309 47.7363C206.742 47.7949 207.164 47.8711 207.574 47.9648L207.521 51.7793C207.299 51.7207 207.064 51.6797 206.818 51.6562C206.572 51.6328 206.285 51.6211 205.957 51.6211C205.348 51.6211 204.826 51.7266 204.393 51.9375C203.971 52.1367 203.648 52.4355 203.426 52.834C203.203 53.2324 203.092 53.7188 203.092 54.293V75ZM206.889 55.9805V59.5664H195.164V55.9805H206.889ZM219.809 70.7109V62.2383C219.809 61.6289 219.709 61.1074 219.51 60.6738C219.311 60.2285 219 59.8828 218.578 59.6367C218.168 59.3906 217.635 59.2676 216.979 59.2676C216.416 59.2676 215.93 59.3672 215.52 59.5664C215.109 59.7539 214.793 60.0293 214.57 60.3926C214.348 60.7441 214.236 61.1602 214.236 61.6406H209.174C209.174 60.832 209.361 60.0645 209.736 59.3379C210.111 58.6113 210.656 57.9727 211.371 57.4219C212.086 56.8594 212.936 56.4199 213.92 56.1035C214.916 55.7871 216.029 55.6289 217.26 55.6289C218.736 55.6289 220.049 55.875 221.197 56.3672C222.346 56.8594 223.248 57.5977 223.904 58.582C224.572 59.5664 224.906 60.7969 224.906 62.2734V70.4121C224.906 71.4551 224.971 72.3105 225.1 72.9785C225.229 73.6348 225.416 74.209 225.662 74.7012V75H220.547C220.301 74.4844 220.113 73.8398 219.984 73.0664C219.867 72.2812 219.809 71.4961 219.809 70.7109ZM220.477 63.416L220.512 66.2812H217.682C217.014 66.2812 216.434 66.3574 215.941 66.5098C215.449 66.6621 215.045 66.8789 214.729 67.1602C214.412 67.4297 214.178 67.7461 214.025 68.1094C213.885 68.4727 213.814 68.8711 213.814 69.3047C213.814 69.7383 213.914 70.1309 214.113 70.4824C214.312 70.8223 214.6 71.0918 214.975 71.291C215.35 71.4785 215.789 71.5723 216.293 71.5723C217.055 71.5723 217.717 71.4199 218.279 71.1152C218.842 70.8105 219.275 70.4355 219.58 69.9902C219.896 69.5449 220.061 69.123 220.072 68.7246L221.408 70.8691C221.221 71.3496 220.963 71.8477 220.635 72.3633C220.318 72.8789 219.914 73.3652 219.422 73.8223C218.93 74.2676 218.338 74.6367 217.646 74.9297C216.955 75.2109 216.135 75.3516 215.186 75.3516C213.979 75.3516 212.883 75.1113 211.898 74.6309C210.926 74.1387 210.152 73.4648 209.578 72.6094C209.016 71.7422 208.734 70.7578 208.734 69.6562C208.734 68.6602 208.922 67.7754 209.297 67.002C209.672 66.2285 210.223 65.5781 210.949 65.0508C211.688 64.5117 212.607 64.1074 213.709 63.8379C214.811 63.5566 216.088 63.416 217.541 63.416H220.477ZM248.496 53.7832L241.535 75H235.928L245.438 49.4062H249.006L248.496 53.7832ZM254.279 75L247.301 53.7832L246.738 49.4062H250.342L259.904 75H254.279ZM253.963 65.4727V69.6035H240.445V65.4727H253.963ZM267.305 48V75H262.225V48H267.305ZM276.551 47.9824V75H271.488V47.9824H276.551ZM288.539 55.9805L280.277 65.4023L275.848 69.8848L274.002 66.2285L277.518 61.7637L282.457 55.9805H288.539ZM283.283 75L277.658 66.2109L281.156 63.1523L289.119 75H283.283ZM300.984 70.7109V62.2383C300.984 61.6289 300.885 61.1074 300.686 60.6738C300.486 60.2285 300.176 59.8828 299.754 59.6367C299.344 59.3906 298.811 59.2676 298.154 59.2676C297.592 59.2676 297.105 59.3672 296.695 59.5664C296.285 59.7539 295.969 60.0293 295.746 60.3926C295.523 60.7441 295.412 61.1602 295.412 61.6406H290.35C290.35 60.832 290.537 60.0645 290.912 59.3379C291.287 58.6113 291.832 57.9727 292.547 57.4219C293.262 56.8594 294.111 56.4199 295.096 56.1035C296.092 55.7871 297.205 55.6289 298.436 55.6289C299.912 55.6289 301.225 55.875 302.373 56.3672C303.521 56.8594 304.424 57.5977 305.08 58.582C305.748 59.5664 306.082 60.7969 306.082 62.2734V70.4121C306.082 71.4551 306.146 72.3105 306.275 72.9785C306.404 73.6348 306.592 74.209 306.838 74.7012V75H301.723C301.477 74.4844 301.289 73.8398 301.16 73.0664C301.043 72.2812 300.984 71.4961 300.984 70.7109ZM301.652 63.416L301.688 66.2812H298.857C298.189 66.2812 297.609 66.3574 297.117 66.5098C296.625 66.6621 296.221 66.8789 295.904 67.1602C295.588 67.4297 295.354 67.7461 295.201 68.1094C295.061 68.4727 294.99 68.8711 294.99 69.3047C294.99 69.7383 295.09 70.1309 295.289 70.4824C295.488 70.8223 295.775 71.0918 296.15 71.291C296.525 71.4785 296.965 71.5723 297.469 71.5723C298.23 71.5723 298.893 71.4199 299.455 71.1152C300.018 70.8105 300.451 70.4355 300.756 69.9902C301.072 69.5449 301.236 69.123 301.248 68.7246L302.584 70.8691C302.396 71.3496 302.139 71.8477 301.811 72.3633C301.494 72.8789 301.09 73.3652 300.598 73.8223C300.105 74.2676 299.514 74.6367 298.822 74.9297C298.131 75.2109 297.311 75.3516 296.361 75.3516C295.154 75.3516 294.059 75.1113 293.074 74.6309C292.102 74.1387 291.328 73.4648 290.754 72.6094C290.191 71.7422 289.91 70.7578 289.91 69.6562C289.91 68.6602 290.098 67.7754 290.473 67.002C290.848 66.2285 291.398 65.5781 292.125 65.0508C292.863 64.5117 293.783 64.1074 294.885 63.8379C295.986 63.5566 297.264 63.416 298.717 63.416H301.652ZM315.047 59.918V75H309.967V55.9805H314.73L315.047 59.918ZM314.344 64.8223H312.938C312.938 63.498 313.096 62.2793 313.412 61.166C313.74 60.041 314.215 59.0684 314.836 58.248C315.469 57.416 316.248 56.7715 317.174 56.3145C318.1 55.8574 319.172 55.6289 320.391 55.6289C321.234 55.6289 322.008 55.7578 322.711 56.0156C323.414 56.2617 324.018 56.6543 324.521 57.1934C325.037 57.7207 325.436 58.4121 325.717 59.2676C325.998 60.1113 326.139 61.125 326.139 62.3086V75H321.076V62.8711C321.076 62.0039 320.959 61.3359 320.725 60.8672C320.49 60.3984 320.156 60.0703 319.723 59.8828C319.301 59.6953 318.791 59.6016 318.193 59.6016C317.537 59.6016 316.963 59.7363 316.471 60.0059C315.99 60.2754 315.592 60.6504 315.275 61.1309C314.959 61.5996 314.725 62.1504 314.572 62.7832C314.42 63.416 314.344 64.0957 314.344 64.8223ZM325.664 64.2422L323.854 64.4707C323.854 63.2285 324.006 62.0742 324.311 61.0078C324.627 59.9414 325.09 59.0039 325.699 58.1953C326.32 57.3867 327.088 56.7598 328.002 56.3145C328.916 55.8574 329.971 55.6289 331.166 55.6289C332.08 55.6289 332.912 55.7637 333.662 56.0332C334.412 56.291 335.051 56.707 335.578 57.2812C336.117 57.8438 336.527 58.582 336.809 59.4961C337.102 60.4102 337.248 61.5293 337.248 62.8535V75H332.168V62.8535C332.168 61.9746 332.051 61.3066 331.816 60.8496C331.594 60.3809 331.266 60.0586 330.832 59.8828C330.41 59.6953 329.906 59.6016 329.32 59.6016C328.711 59.6016 328.178 59.7246 327.721 59.9707C327.264 60.2051 326.883 60.5332 326.578 60.9551C326.273 61.377 326.045 61.8691 325.893 62.4316C325.74 62.9824 325.664 63.5859 325.664 64.2422ZM349.922 75.3516C348.445 75.3516 347.121 75.1172 345.949 74.6484C344.777 74.168 343.781 73.5059 342.961 72.6621C342.152 71.8184 341.531 70.8398 341.098 69.7266C340.664 68.6016 340.447 67.4062 340.447 66.1406V65.4375C340.447 63.9961 340.652 62.6777 341.062 61.4824C341.473 60.2871 342.059 59.25 342.82 58.3711C343.594 57.4922 344.531 56.8184 345.633 56.3496C346.734 55.8691 347.977 55.6289 349.359 55.6289C350.707 55.6289 351.902 55.8516 352.945 56.2969C353.988 56.7422 354.861 57.375 355.564 58.1953C356.279 59.0156 356.818 60 357.182 61.1484C357.545 62.2852 357.727 63.5508 357.727 64.9453V67.0547H342.609V63.6797H352.752V63.293C352.752 62.5898 352.623 61.9629 352.365 61.4121C352.119 60.8496 351.744 60.4043 351.24 60.0762C350.736 59.748 350.092 59.584 349.307 59.584C348.639 59.584 348.064 59.7305 347.584 60.0234C347.104 60.3164 346.711 60.7266 346.406 61.2539C346.113 61.7812 345.891 62.4023 345.738 63.1172C345.598 63.8203 345.527 64.5938 345.527 65.4375V66.1406C345.527 66.9023 345.633 67.6055 345.844 68.25C346.066 68.8945 346.377 69.4512 346.775 69.9199C347.186 70.3887 347.678 70.752 348.252 71.0098C348.838 71.2676 349.5 71.3965 350.238 71.3965C351.152 71.3965 352.002 71.2207 352.787 70.8691C353.584 70.5059 354.27 69.9609 354.844 69.2344L357.305 71.9062C356.906 72.4805 356.361 73.0312 355.67 73.5586C354.99 74.0859 354.17 74.5195 353.209 74.8594C352.248 75.1875 351.152 75.3516 349.922 75.3516ZM365.953 48V75H360.873V48H365.953Z" fill="#888888"/>
<path d="M116.543 129.418C116.543 128.798 116.452 128.242 116.27 127.75C116.087 127.24 115.75 126.766 115.258 126.328C114.766 125.891 114.055 125.453 113.125 125.016C112.214 124.56 111.01 124.086 109.516 123.594C107.766 123.01 106.079 122.354 104.457 121.625C102.835 120.878 101.385 120.012 100.109 119.027C98.8333 118.025 97.8216 116.858 97.0742 115.527C96.3268 114.178 95.9531 112.611 95.9531 110.824C95.9531 109.111 96.3359 107.57 97.1016 106.203C97.8672 104.818 98.9336 103.642 100.301 102.676C101.686 101.691 103.309 100.944 105.168 100.434C107.027 99.9049 109.06 99.6406 111.266 99.6406C114.182 99.6406 116.753 100.151 118.977 101.172C121.219 102.174 122.969 103.605 124.227 105.465C125.503 107.306 126.141 109.484 126.141 112H116.598C116.598 110.997 116.388 110.113 115.969 109.348C115.568 108.582 114.957 107.98 114.137 107.543C113.316 107.105 112.286 106.887 111.047 106.887C109.844 106.887 108.832 107.069 108.012 107.434C107.191 107.798 106.572 108.29 106.152 108.91C105.733 109.512 105.523 110.177 105.523 110.906C105.523 111.508 105.688 112.055 106.016 112.547C106.362 113.021 106.845 113.467 107.465 113.887C108.103 114.306 108.868 114.707 109.762 115.09C110.673 115.473 111.694 115.846 112.824 116.211C114.939 116.885 116.816 117.642 118.457 118.48C120.116 119.301 121.51 120.24 122.641 121.297C123.789 122.336 124.655 123.521 125.238 124.852C125.84 126.182 126.141 127.686 126.141 129.363C126.141 131.15 125.794 132.736 125.102 134.121C124.409 135.507 123.415 136.682 122.121 137.648C120.827 138.596 119.277 139.316 117.473 139.809C115.668 140.301 113.654 140.547 111.43 140.547C109.388 140.547 107.374 140.292 105.387 139.781C103.418 139.253 101.632 138.451 100.027 137.375C98.4232 136.281 97.138 134.887 96.1719 133.191C95.224 131.478 94.75 129.445 94.75 127.094H104.375C104.375 128.26 104.53 129.245 104.84 130.047C105.15 130.849 105.605 131.496 106.207 131.988C106.809 132.462 107.547 132.809 108.422 133.027C109.297 133.228 110.299 133.328 111.43 133.328C112.651 133.328 113.635 133.155 114.383 132.809C115.13 132.444 115.677 131.97 116.023 131.387C116.37 130.785 116.543 130.129 116.543 129.418ZM139.949 116.676V140H130.734V110.414H139.375L139.949 116.676ZM138.828 124.195L136.723 124.25C136.723 122.172 136.969 120.258 137.461 118.508C137.953 116.758 138.682 115.236 139.648 113.941C140.615 112.647 141.799 111.645 143.203 110.934C144.625 110.223 146.266 109.867 148.125 109.867C149.419 109.867 150.595 110.068 151.652 110.469C152.71 110.852 153.621 111.462 154.387 112.301C155.152 113.121 155.736 114.197 156.137 115.527C156.556 116.84 156.766 118.417 156.766 120.258V140H147.551V121.434C147.551 120.176 147.405 119.228 147.113 118.59C146.84 117.952 146.439 117.523 145.91 117.305C145.382 117.086 144.734 116.977 143.969 116.977C143.167 116.977 142.447 117.159 141.809 117.523C141.171 117.888 140.624 118.398 140.168 119.055C139.73 119.693 139.393 120.449 139.156 121.324C138.938 122.199 138.828 123.156 138.828 124.195ZM155.727 124.195L153.156 124.25C153.156 122.172 153.384 120.258 153.84 118.508C154.314 116.758 155.016 115.236 155.945 113.941C156.893 112.647 158.069 111.645 159.473 110.934C160.876 110.223 162.508 109.867 164.367 109.867C165.716 109.867 166.956 110.068 168.086 110.469C169.216 110.87 170.191 111.517 171.012 112.41C171.832 113.303 172.47 114.488 172.926 115.965C173.382 117.423 173.609 119.228 173.609 121.379V140H164.367V121.379C164.367 120.158 164.221 119.237 163.93 118.617C163.656 117.979 163.255 117.551 162.727 117.332C162.198 117.095 161.569 116.977 160.84 116.977C159.965 116.977 159.208 117.159 158.57 117.523C157.932 117.888 157.395 118.398 156.957 119.055C156.538 119.693 156.228 120.449 156.027 121.324C155.827 122.199 155.727 123.156 155.727 124.195ZM194.254 132.562V120.367C194.254 119.529 194.135 118.809 193.898 118.207C193.661 117.605 193.288 117.141 192.777 116.812C192.267 116.466 191.583 116.293 190.727 116.293C190.034 116.293 189.441 116.411 188.949 116.648C188.457 116.885 188.083 117.241 187.828 117.715C187.573 118.189 187.445 118.79 187.445 119.52H178.23C178.23 118.152 178.531 116.885 179.133 115.719C179.753 114.534 180.628 113.504 181.758 112.629C182.906 111.754 184.273 111.079 185.859 110.605C187.464 110.113 189.25 109.867 191.219 109.867C193.57 109.867 195.667 110.259 197.508 111.043C199.367 111.827 200.835 113.003 201.91 114.57C202.986 116.12 203.523 118.07 203.523 120.422V132.535C203.523 134.467 203.633 135.935 203.852 136.938C204.07 137.922 204.38 138.788 204.781 139.535V140H195.539C195.102 139.089 194.773 137.977 194.555 136.664C194.354 135.333 194.254 133.966 194.254 132.562ZM195.375 121.926L195.43 126.848H191.355C190.499 126.848 189.77 126.966 189.168 127.203C188.585 127.44 188.111 127.768 187.746 128.188C187.4 128.589 187.145 129.044 186.98 129.555C186.835 130.065 186.762 130.603 186.762 131.168C186.762 131.715 186.889 132.207 187.145 132.645C187.418 133.064 187.783 133.392 188.238 133.629C188.694 133.866 189.204 133.984 189.77 133.984C190.79 133.984 191.656 133.793 192.367 133.41C193.096 133.009 193.652 132.526 194.035 131.961C194.418 131.396 194.609 130.867 194.609 130.375L196.633 134.148C196.268 134.878 195.849 135.616 195.375 136.363C194.919 137.111 194.345 137.803 193.652 138.441C192.978 139.061 192.148 139.572 191.164 139.973C190.18 140.355 188.986 140.547 187.582 140.547C185.759 140.547 184.082 140.173 182.551 139.426C181.038 138.678 179.826 137.639 178.914 136.309C178.003 134.96 177.547 133.41 177.547 131.66C177.547 130.129 177.82 128.762 178.367 127.559C178.932 126.355 179.78 125.335 180.91 124.496C182.04 123.658 183.48 123.02 185.23 122.582C186.98 122.145 189.04 121.926 191.41 121.926H195.375ZM217.934 117.742V140H208.719V110.414H217.332L217.934 117.742ZM226.684 110.195L226.52 118.754C226.155 118.717 225.663 118.672 225.043 118.617C224.423 118.562 223.904 118.535 223.484 118.535C222.409 118.535 221.479 118.663 220.695 118.918C219.93 119.155 219.292 119.52 218.781 120.012C218.289 120.486 217.924 121.087 217.688 121.816C217.469 122.546 217.368 123.393 217.387 124.359L215.719 123.266C215.719 121.279 215.91 119.474 216.293 117.852C216.694 116.211 217.259 114.798 217.988 113.613C218.717 112.41 219.602 111.49 220.641 110.852C221.68 110.195 222.846 109.867 224.141 109.867C224.596 109.867 225.043 109.895 225.48 109.949C225.936 110.004 226.337 110.086 226.684 110.195ZM246.809 110.414V116.812H228.98V110.414H246.809ZM232.727 103.059H241.941V130.348C241.941 131.132 242.033 131.742 242.215 132.18C242.397 132.599 242.707 132.9 243.145 133.082C243.6 133.246 244.202 133.328 244.949 133.328C245.478 133.328 245.915 133.319 246.262 133.301C246.608 133.264 246.936 133.219 247.246 133.164V139.754C246.462 140.009 245.642 140.201 244.785 140.328C243.928 140.474 243.017 140.547 242.051 140.547C240.082 140.547 238.396 140.237 236.992 139.617C235.607 138.997 234.549 138.022 233.82 136.691C233.091 135.361 232.727 133.629 232.727 131.496V103.059ZM271.418 129.418C271.418 128.798 271.327 128.242 271.145 127.75C270.962 127.24 270.625 126.766 270.133 126.328C269.641 125.891 268.93 125.453 268 125.016C267.089 124.56 265.885 124.086 264.391 123.594C262.641 123.01 260.954 122.354 259.332 121.625C257.71 120.878 256.26 120.012 254.984 119.027C253.708 118.025 252.697 116.858 251.949 115.527C251.202 114.178 250.828 112.611 250.828 110.824C250.828 109.111 251.211 107.57 251.977 106.203C252.742 104.818 253.809 103.642 255.176 102.676C256.561 101.691 258.184 100.944 260.043 100.434C261.902 99.9049 263.935 99.6406 266.141 99.6406C269.057 99.6406 271.628 100.151 273.852 101.172C276.094 102.174 277.844 103.605 279.102 105.465C280.378 107.306 281.016 109.484 281.016 112H271.473C271.473 110.997 271.263 110.113 270.844 109.348C270.443 108.582 269.832 107.98 269.012 107.543C268.191 107.105 267.161 106.887 265.922 106.887C264.719 106.887 263.707 107.069 262.887 107.434C262.066 107.798 261.447 108.29 261.027 108.91C260.608 109.512 260.398 110.177 260.398 110.906C260.398 111.508 260.562 112.055 260.891 112.547C261.237 113.021 261.72 113.467 262.34 113.887C262.978 114.306 263.743 114.707 264.637 115.09C265.548 115.473 266.569 115.846 267.699 116.211C269.814 116.885 271.691 117.642 273.332 118.48C274.991 119.301 276.385 120.24 277.516 121.297C278.664 122.336 279.53 123.521 280.113 124.852C280.715 126.182 281.016 127.686 281.016 129.363C281.016 131.15 280.669 132.736 279.977 134.121C279.284 135.507 278.29 136.682 276.996 137.648C275.702 138.596 274.152 139.316 272.348 139.809C270.543 140.301 268.529 140.547 266.305 140.547C264.263 140.547 262.249 140.292 260.262 139.781C258.293 139.253 256.507 138.451 254.902 137.375C253.298 136.281 252.013 134.887 251.047 133.191C250.099 131.478 249.625 129.445 249.625 127.094H259.25C259.25 128.26 259.405 129.245 259.715 130.047C260.025 130.849 260.48 131.496 261.082 131.988C261.684 132.462 262.422 132.809 263.297 133.027C264.172 133.228 265.174 133.328 266.305 133.328C267.526 133.328 268.51 133.155 269.258 132.809C270.005 132.444 270.552 131.97 270.898 131.387C271.245 130.785 271.418 130.129 271.418 129.418ZM294.551 98V140H285.336V98H294.551ZM293.457 124.195L291.297 124.25C291.297 122.172 291.552 120.258 292.062 118.508C292.573 116.758 293.302 115.236 294.25 113.941C295.198 112.647 296.337 111.645 297.668 110.934C298.999 110.223 300.475 109.867 302.098 109.867C303.556 109.867 304.887 110.077 306.09 110.496C307.311 110.915 308.359 111.59 309.234 112.52C310.128 113.449 310.811 114.661 311.285 116.156C311.777 117.651 312.023 119.474 312.023 121.625V140H302.754V121.57C302.754 120.367 302.581 119.438 302.234 118.781C301.906 118.107 301.432 117.642 300.812 117.387C300.193 117.113 299.436 116.977 298.543 116.977C297.467 116.977 296.592 117.159 295.918 117.523C295.243 117.888 294.724 118.398 294.359 119.055C294.013 119.693 293.776 120.449 293.648 121.324C293.521 122.199 293.457 123.156 293.457 124.195ZM326.871 110.414V140H317.629V110.414H326.871ZM317.082 102.785C317.082 101.473 317.556 100.397 318.504 99.5586C319.452 98.7201 320.682 98.3008 322.195 98.3008C323.708 98.3008 324.939 98.7201 325.887 99.5586C326.835 100.397 327.309 101.473 327.309 102.785C327.309 104.098 326.835 105.173 325.887 106.012C324.939 106.85 323.708 107.27 322.195 107.27C320.682 107.27 319.452 106.85 318.504 106.012C317.556 105.173 317.082 104.098 317.082 102.785ZM343.852 140H334.582V108.008C334.582 105.711 335.047 103.779 335.977 102.211C336.906 100.643 338.219 99.4583 339.914 98.6562C341.609 97.8359 343.615 97.4258 345.93 97.4258C346.732 97.4258 347.488 97.4805 348.199 97.5898C348.91 97.6992 349.603 97.8359 350.277 98L350.305 104.781C349.977 104.69 349.639 104.626 349.293 104.59C348.947 104.553 348.518 104.535 348.008 104.535C347.115 104.535 346.358 104.672 345.738 104.945C345.118 105.201 344.645 105.592 344.316 106.121C344.007 106.632 343.852 107.26 343.852 108.008V140ZM349.594 110.414V116.812H330.316V110.414H349.594ZM368.488 110.414V116.812H350.66V110.414H368.488ZM354.406 103.059H363.621V130.348C363.621 131.132 363.712 131.742 363.895 132.18C364.077 132.599 364.387 132.9 364.824 133.082C365.28 133.246 365.882 133.328 366.629 133.328C367.158 133.328 367.595 133.319 367.941 133.301C368.288 133.264 368.616 133.219 368.926 133.164V139.754C368.142 140.009 367.322 140.201 366.465 140.328C365.608 140.474 364.697 140.547 363.73 140.547C361.762 140.547 360.076 140.237 358.672 139.617C357.286 138.997 356.229 138.022 355.5 136.691C354.771 135.361 354.406 133.629 354.406 131.496V103.059Z" fill="black"/>
<rect x="93" y="178" width="917" height="77" rx="10" fill="#D3D3D3"/>
<rect x="111" y="196" width="104" height="41" rx="3" fill="#424242"/>
<rect x="111" y="196" width="104" height="41" rx="3" stroke="#424242" stroke-width="4"/>
<path d="M142.812 220.627V223H136.343V220.627H142.812ZM137.441 210.203V223H134.356V210.203H137.441ZM148.911 220.609V216.689C148.911 216.42 148.873 216.188 148.797 215.995C148.721 215.802 148.601 215.652 148.437 215.547C148.272 215.436 148.053 215.38 147.777 215.38C147.555 215.38 147.364 215.418 147.206 215.494C147.048 215.57 146.928 215.685 146.846 215.837C146.764 215.989 146.723 216.183 146.723 216.417H143.761C143.761 215.978 143.857 215.57 144.051 215.195C144.25 214.814 144.531 214.483 144.895 214.202C145.264 213.921 145.703 213.704 146.213 213.552C146.729 213.394 147.303 213.314 147.936 213.314C148.691 213.314 149.365 213.44 149.957 213.692C150.555 213.944 151.026 214.322 151.372 214.826C151.718 215.324 151.891 215.951 151.891 216.707V220.601C151.891 221.222 151.926 221.693 151.996 222.016C152.066 222.332 152.166 222.61 152.295 222.851V223H149.324C149.184 222.707 149.078 222.35 149.008 221.928C148.943 221.5 148.911 221.061 148.911 220.609ZM149.271 217.19L149.289 218.772H147.979C147.704 218.772 147.47 218.811 147.276 218.887C147.089 218.963 146.937 219.068 146.819 219.203C146.708 219.332 146.626 219.479 146.573 219.643C146.526 219.807 146.503 219.979 146.503 220.161C146.503 220.337 146.544 220.495 146.626 220.636C146.714 220.771 146.831 220.876 146.978 220.952C147.124 221.028 147.288 221.066 147.47 221.066C147.798 221.066 148.076 221.005 148.305 220.882C148.539 220.753 148.718 220.598 148.841 220.416C148.964 220.234 149.025 220.064 149.025 219.906L149.676 221.119C149.559 221.354 149.424 221.591 149.271 221.831C149.125 222.071 148.94 222.294 148.718 222.499C148.501 222.698 148.234 222.862 147.918 222.991C147.602 223.114 147.218 223.176 146.767 223.176C146.181 223.176 145.642 223.056 145.149 222.815C144.663 222.575 144.273 222.241 143.98 221.813C143.688 221.38 143.541 220.882 143.541 220.319C143.541 219.827 143.629 219.388 143.805 219.001C143.986 218.614 144.259 218.286 144.622 218.017C144.985 217.747 145.448 217.542 146.011 217.401C146.573 217.261 147.235 217.19 147.997 217.19H149.271ZM156.522 215.846V223H153.561V213.49H156.329L156.522 215.846ZM159.335 213.42L159.282 216.171C159.165 216.159 159.007 216.145 158.808 216.127C158.608 216.109 158.441 216.101 158.307 216.101C157.961 216.101 157.662 216.142 157.41 216.224C157.164 216.3 156.959 216.417 156.795 216.575C156.637 216.728 156.52 216.921 156.443 217.155C156.373 217.39 156.341 217.662 156.347 217.973L155.811 217.621C155.811 216.982 155.872 216.402 155.995 215.881C156.124 215.354 156.306 214.899 156.54 214.519C156.774 214.132 157.059 213.836 157.393 213.631C157.727 213.42 158.102 213.314 158.518 213.314C158.664 213.314 158.808 213.323 158.948 213.341C159.095 213.358 159.224 213.385 159.335 213.42ZM165.03 220.609V216.689C165.03 216.42 164.992 216.188 164.916 215.995C164.84 215.802 164.72 215.652 164.556 215.547C164.392 215.436 164.172 215.38 163.896 215.38C163.674 215.38 163.483 215.418 163.325 215.494C163.167 215.57 163.047 215.685 162.965 215.837C162.883 215.989 162.842 216.183 162.842 216.417H159.88C159.88 215.978 159.977 215.57 160.17 215.195C160.369 214.814 160.65 214.483 161.014 214.202C161.383 213.921 161.822 213.704 162.332 213.552C162.848 213.394 163.422 213.314 164.055 213.314C164.811 213.314 165.484 213.44 166.076 213.692C166.674 213.944 167.146 214.322 167.491 214.826C167.837 215.324 168.01 215.951 168.01 216.707V220.601C168.01 221.222 168.045 221.693 168.115 222.016C168.186 222.332 168.285 222.61 168.414 222.851V223H165.443C165.303 222.707 165.197 222.35 165.127 221.928C165.062 221.5 165.03 221.061 165.03 220.609ZM165.391 217.19L165.408 218.772H164.099C163.823 218.772 163.589 218.811 163.396 218.887C163.208 218.963 163.056 219.068 162.938 219.203C162.827 219.332 162.745 219.479 162.692 219.643C162.646 219.807 162.622 219.979 162.622 220.161C162.622 220.337 162.663 220.495 162.745 220.636C162.833 220.771 162.95 220.876 163.097 220.952C163.243 221.028 163.407 221.066 163.589 221.066C163.917 221.066 164.195 221.005 164.424 220.882C164.658 220.753 164.837 220.598 164.96 220.416C165.083 220.234 165.145 220.064 165.145 219.906L165.795 221.119C165.678 221.354 165.543 221.591 165.391 221.831C165.244 222.071 165.06 222.294 164.837 222.499C164.62 222.698 164.354 222.862 164.037 222.991C163.721 223.114 163.337 223.176 162.886 223.176C162.3 223.176 161.761 223.056 161.269 222.815C160.782 222.575 160.393 222.241 160.1 221.813C159.807 221.38 159.66 220.882 159.66 220.319C159.66 219.827 159.748 219.388 159.924 219.001C160.105 218.614 160.378 218.286 160.741 218.017C161.104 217.747 161.567 217.542 162.13 217.401C162.692 217.261 163.354 217.19 164.116 217.19H165.391ZM172.94 220.97L174.812 213.49H177.933L174.821 223H172.976L172.94 220.97ZM171.833 213.49L173.679 220.97L173.661 223H171.807L168.704 213.49H171.833ZM183.294 223.176C182.521 223.176 181.829 223.056 181.22 222.815C180.61 222.569 180.095 222.232 179.673 221.805C179.257 221.377 178.938 220.885 178.715 220.328C178.498 219.771 178.39 219.183 178.39 218.562V218.228C178.39 217.53 178.486 216.886 178.68 216.294C178.873 215.696 179.16 215.175 179.541 214.729C179.922 214.284 180.399 213.938 180.974 213.692C181.548 213.44 182.216 213.314 182.978 213.314C183.651 213.314 184.255 213.423 184.788 213.64C185.321 213.856 185.772 214.167 186.142 214.571C186.517 214.976 186.801 215.465 186.994 216.039C187.193 216.613 187.293 217.258 187.293 217.973V219.177H179.523V217.322H184.401V217.094C184.407 216.777 184.352 216.508 184.234 216.285C184.123 216.062 183.959 215.893 183.742 215.775C183.525 215.658 183.262 215.6 182.951 215.6C182.629 215.6 182.362 215.67 182.151 215.811C181.946 215.951 181.785 216.145 181.668 216.391C181.557 216.631 181.478 216.909 181.431 217.226C181.384 217.542 181.36 217.876 181.36 218.228V218.562C181.36 218.913 181.407 219.232 181.501 219.52C181.601 219.807 181.741 220.053 181.923 220.258C182.11 220.457 182.333 220.612 182.591 220.724C182.854 220.835 183.153 220.891 183.487 220.891C183.892 220.891 184.29 220.814 184.683 220.662C185.075 220.51 185.412 220.258 185.693 219.906L187.038 221.506C186.845 221.781 186.569 222.048 186.212 222.306C185.86 222.563 185.438 222.774 184.946 222.938C184.454 223.097 183.903 223.176 183.294 223.176ZM191.626 209.5V223H188.655V209.5H191.626Z" fill="white"/>
<rect x="235" y="196" width="91" height="41" rx="3" fill="#424242"/>
<rect x="235" y="196" width="91" height="41" rx="3" stroke="#424242" stroke-width="4"/>
<path d="M258.141 210.203H263.177C264.161 210.203 265.017 210.35 265.743 210.643C266.47 210.936 267.029 211.369 267.422 211.943C267.82 212.518 268.02 213.227 268.02 214.07C268.02 214.803 267.905 215.415 267.677 215.907C267.448 216.399 267.129 216.807 266.719 217.129C266.314 217.445 265.843 217.706 265.304 217.911L264.293 218.482H260.065L260.048 216.101H263.177C263.569 216.101 263.895 216.03 264.152 215.89C264.41 215.749 264.604 215.55 264.732 215.292C264.867 215.028 264.935 214.715 264.935 214.352C264.935 213.982 264.867 213.666 264.732 213.402C264.598 213.139 264.398 212.937 264.135 212.796C263.877 212.655 263.558 212.585 263.177 212.585H261.226V223H258.141V210.203ZM265.146 223L262.315 217.34L265.585 217.322L268.45 222.868V223H265.146ZM274.348 223.176C273.574 223.176 272.883 223.056 272.273 222.815C271.664 222.569 271.148 222.232 270.727 221.805C270.311 221.377 269.991 220.885 269.769 220.328C269.552 219.771 269.443 219.183 269.443 218.562V218.228C269.443 217.53 269.54 216.886 269.733 216.294C269.927 215.696 270.214 215.175 270.595 214.729C270.976 214.284 271.453 213.938 272.027 213.692C272.602 213.44 273.27 213.314 274.031 213.314C274.705 213.314 275.309 213.423 275.842 213.64C276.375 213.856 276.826 214.167 277.195 214.571C277.57 214.976 277.854 215.465 278.048 216.039C278.247 216.613 278.347 217.258 278.347 217.973V219.177H270.577V217.322H275.455V217.094C275.461 216.777 275.405 216.508 275.288 216.285C275.177 216.062 275.013 215.893 274.796 215.775C274.579 215.658 274.315 215.6 274.005 215.6C273.683 215.6 273.416 215.67 273.205 215.811C273 215.951 272.839 216.145 272.722 216.391C272.61 216.631 272.531 216.909 272.484 217.226C272.438 217.542 272.414 217.876 272.414 218.228V218.562C272.414 218.913 272.461 219.232 272.555 219.52C272.654 219.807 272.795 220.053 272.977 220.258C273.164 220.457 273.387 220.612 273.645 220.724C273.908 220.835 274.207 220.891 274.541 220.891C274.945 220.891 275.344 220.814 275.736 220.662C276.129 220.51 276.466 220.258 276.747 219.906L278.092 221.506C277.898 221.781 277.623 222.048 277.266 222.306C276.914 222.563 276.492 222.774 276 222.938C275.508 223.097 274.957 223.176 274.348 223.176ZM284.49 220.609V216.689C284.49 216.42 284.452 216.188 284.376 215.995C284.3 215.802 284.18 215.652 284.016 215.547C283.852 215.436 283.632 215.38 283.356 215.38C283.134 215.38 282.943 215.418 282.785 215.494C282.627 215.57 282.507 215.685 282.425 215.837C282.343 215.989 282.302 216.183 282.302 216.417H279.34C279.34 215.978 279.437 215.57 279.63 215.195C279.829 214.814 280.11 214.483 280.474 214.202C280.843 213.921 281.282 213.704 281.792 213.552C282.308 213.394 282.882 213.314 283.515 213.314C284.271 213.314 284.944 213.44 285.536 213.692C286.134 213.944 286.605 214.322 286.951 214.826C287.297 215.324 287.47 215.951 287.47 216.707V220.601C287.47 221.222 287.505 221.693 287.575 222.016C287.646 222.332 287.745 222.61 287.874 222.851V223H284.903C284.763 222.707 284.657 222.35 284.587 221.928C284.522 221.5 284.49 221.061 284.49 220.609ZM284.851 217.19L284.868 218.772H283.559C283.283 218.772 283.049 218.811 282.855 218.887C282.668 218.963 282.516 219.068 282.398 219.203C282.287 219.332 282.205 219.479 282.152 219.643C282.105 219.807 282.082 219.979 282.082 220.161C282.082 220.337 282.123 220.495 282.205 220.636C282.293 220.771 282.41 220.876 282.557 220.952C282.703 221.028 282.867 221.066 283.049 221.066C283.377 221.066 283.655 221.005 283.884 220.882C284.118 220.753 284.297 220.598 284.42 220.416C284.543 220.234 284.604 220.064 284.604 219.906L285.255 221.119C285.138 221.354 285.003 221.591 284.851 221.831C284.704 222.071 284.52 222.294 284.297 222.499C284.08 222.698 283.813 222.862 283.497 222.991C283.181 223.114 282.797 223.176 282.346 223.176C281.76 223.176 281.221 223.056 280.729 222.815C280.242 222.575 279.853 222.241 279.56 221.813C279.267 221.38 279.12 220.882 279.12 220.319C279.12 219.827 279.208 219.388 279.384 219.001C279.565 218.614 279.838 218.286 280.201 218.017C280.564 217.747 281.027 217.542 281.59 217.401C282.152 217.261 282.814 217.19 283.576 217.19H284.851ZM293.13 220.891C293.405 220.891 293.64 220.841 293.833 220.741C294.032 220.636 294.182 220.489 294.281 220.302C294.387 220.108 294.437 219.877 294.431 219.607H297.217C297.223 220.322 297.047 220.949 296.689 221.488C296.338 222.021 295.857 222.438 295.248 222.736C294.645 223.029 293.962 223.176 293.2 223.176C292.456 223.176 291.806 223.056 291.249 222.815C290.692 222.569 290.227 222.229 289.852 221.796C289.482 221.356 289.204 220.844 289.017 220.258C288.835 219.672 288.744 219.036 288.744 218.351V218.148C288.744 217.463 288.835 216.827 289.017 216.241C289.204 215.649 289.482 215.137 289.852 214.703C290.227 214.264 290.689 213.924 291.24 213.684C291.797 213.438 292.444 213.314 293.183 213.314C293.974 213.314 294.671 213.464 295.274 213.763C295.884 214.062 296.361 214.495 296.707 215.063C297.053 215.632 297.223 216.32 297.217 217.129H294.431C294.437 216.842 294.393 216.584 294.299 216.355C294.205 216.127 294.059 215.945 293.859 215.811C293.666 215.67 293.417 215.6 293.112 215.6C292.808 215.6 292.562 215.667 292.374 215.802C292.187 215.937 292.043 216.124 291.943 216.364C291.85 216.599 291.785 216.868 291.75 217.173C291.721 217.478 291.706 217.803 291.706 218.148V218.351C291.706 218.702 291.721 219.033 291.75 219.344C291.785 219.648 291.853 219.918 291.952 220.152C292.052 220.381 292.195 220.562 292.383 220.697C292.57 220.826 292.819 220.891 293.13 220.891ZM303.492 213.49V215.547H297.762V213.49H303.492ZM298.966 211.126H301.928V219.897C301.928 220.149 301.957 220.346 302.016 220.486C302.074 220.621 302.174 220.718 302.314 220.776C302.461 220.829 302.654 220.855 302.895 220.855C303.064 220.855 303.205 220.853 303.316 220.847C303.428 220.835 303.533 220.82 303.633 220.803V222.921C303.381 223.003 303.117 223.064 302.842 223.105C302.566 223.152 302.273 223.176 301.963 223.176C301.33 223.176 300.788 223.076 300.337 222.877C299.892 222.678 299.552 222.364 299.317 221.937C299.083 221.509 298.966 220.952 298.966 220.267V211.126Z" fill="white"/>
<rect x="346" y="196" width="131" height="41" rx="3" fill="#424242"/>
<rect x="346" y="196" width="131" height="41" rx="3" stroke="#424242" stroke-width="4"/>
<path d="M375.359 210.203V223H372.274V210.203H375.359ZM379.209 210.203V212.585H368.513V210.203H379.209ZM382.575 221.884L385.036 213.49H388.218L384.395 224.415C384.312 224.655 384.204 224.913 384.069 225.188C383.935 225.47 383.75 225.736 383.516 225.988C383.281 226.24 382.979 226.445 382.61 226.604C382.247 226.762 381.796 226.841 381.257 226.841C380.97 226.841 380.759 226.826 380.624 226.797C380.495 226.773 380.296 226.729 380.026 226.665V224.547C380.103 224.547 380.167 224.547 380.22 224.547C380.278 224.547 380.343 224.547 380.413 224.547C380.729 224.547 380.981 224.515 381.169 224.45C381.362 224.386 381.509 224.292 381.608 224.169C381.714 224.046 381.796 223.896 381.854 223.721L382.575 221.884ZM381.951 213.49L383.823 220.144L384.148 223.281H382.162L378.778 213.49H381.951ZM391.979 215.318V226.656H389.018V213.49H391.777L391.979 215.318ZM397.815 218.131V218.315C397.815 219.007 397.736 219.648 397.578 220.24C397.42 220.832 397.186 221.348 396.875 221.787C396.564 222.227 396.178 222.569 395.715 222.815C395.258 223.056 394.728 223.176 394.124 223.176C393.556 223.176 393.066 223.05 392.656 222.798C392.246 222.546 391.903 222.197 391.628 221.752C391.353 221.307 391.13 220.797 390.96 220.223C390.79 219.648 390.655 219.042 390.556 218.403V218.166C390.655 217.48 390.79 216.845 390.96 216.259C391.13 215.667 391.353 215.151 391.628 214.712C391.903 214.272 392.243 213.93 392.647 213.684C393.058 213.438 393.547 213.314 394.115 213.314C394.719 213.314 395.249 213.429 395.706 213.657C396.169 213.886 396.556 214.214 396.866 214.642C397.183 215.063 397.42 215.57 397.578 216.162C397.736 216.754 397.815 217.41 397.815 218.131ZM394.854 218.315V218.131C394.854 217.762 394.827 217.425 394.774 217.12C394.722 216.81 394.637 216.54 394.52 216.312C394.408 216.083 394.259 215.907 394.071 215.784C393.884 215.661 393.652 215.6 393.377 215.6C393.061 215.6 392.794 215.649 392.577 215.749C392.366 215.843 392.196 215.989 392.067 216.188C391.944 216.382 391.856 216.625 391.804 216.918C391.757 217.205 391.736 217.542 391.742 217.929V218.649C391.73 219.095 391.774 219.487 391.874 219.827C391.974 220.161 392.146 220.422 392.393 220.609C392.639 220.797 392.973 220.891 393.395 220.891C393.676 220.891 393.91 220.826 394.098 220.697C394.285 220.562 394.435 220.378 394.546 220.144C394.657 219.903 394.736 219.628 394.783 219.317C394.83 219.007 394.854 218.673 394.854 218.315ZM403.739 223.176C402.966 223.176 402.274 223.056 401.665 222.815C401.056 222.569 400.54 222.232 400.118 221.805C399.702 221.377 399.383 220.885 399.16 220.328C398.943 219.771 398.835 219.183 398.835 218.562V218.228C398.835 217.53 398.932 216.886 399.125 216.294C399.318 215.696 399.605 215.175 399.986 214.729C400.367 214.284 400.845 213.938 401.419 213.692C401.993 213.44 402.661 213.314 403.423 213.314C404.097 213.314 404.7 213.423 405.233 213.64C405.767 213.856 406.218 214.167 406.587 214.571C406.962 214.976 407.246 215.465 407.439 216.039C407.639 216.613 407.738 217.258 407.738 217.973V219.177H399.969V217.322H404.847V217.094C404.853 216.777 404.797 216.508 404.68 216.285C404.568 216.062 404.404 215.893 404.188 215.775C403.971 215.658 403.707 215.6 403.396 215.6C403.074 215.6 402.808 215.67 402.597 215.811C402.392 215.951 402.23 216.145 402.113 216.391C402.002 216.631 401.923 216.909 401.876 217.226C401.829 217.542 401.806 217.876 401.806 218.228V218.562C401.806 218.913 401.853 219.232 401.946 219.52C402.046 219.807 402.187 220.053 402.368 220.258C402.556 220.457 402.778 220.612 403.036 220.724C403.3 220.835 403.599 220.891 403.933 220.891C404.337 220.891 404.735 220.814 405.128 220.662C405.521 220.51 405.857 220.258 406.139 219.906L407.483 221.506C407.29 221.781 407.015 222.048 406.657 222.306C406.306 222.563 405.884 222.774 405.392 222.938C404.899 223.097 404.349 223.176 403.739 223.176ZM413.926 220.328C413.926 220.164 413.87 220.023 413.759 219.906C413.653 219.783 413.466 219.672 413.196 219.572C412.927 219.467 412.549 219.361 412.062 219.256C411.6 219.156 411.163 219.024 410.753 218.86C410.349 218.696 409.994 218.497 409.689 218.263C409.385 218.028 409.145 217.75 408.969 217.428C408.799 217.105 408.714 216.736 408.714 216.32C408.714 215.916 408.799 215.535 408.969 215.178C409.145 214.814 409.399 214.495 409.733 214.22C410.073 213.938 410.486 213.719 410.973 213.561C411.459 213.396 412.013 213.314 412.634 213.314C413.489 213.314 414.228 213.446 414.849 213.71C415.47 213.968 415.947 214.331 416.281 214.8C416.621 215.263 416.791 215.799 416.791 216.408H413.829C413.829 216.168 413.788 215.963 413.706 215.793C413.63 215.623 413.504 215.494 413.328 215.406C413.152 215.312 412.918 215.266 412.625 215.266C412.42 215.266 412.232 215.304 412.062 215.38C411.898 215.456 411.767 215.562 411.667 215.696C411.567 215.831 411.518 215.989 411.518 216.171C411.518 216.3 411.547 216.417 411.605 216.522C411.67 216.622 411.767 216.716 411.896 216.804C412.024 216.886 412.188 216.962 412.388 217.032C412.587 217.097 412.827 217.155 413.108 217.208C413.747 217.325 414.345 217.492 414.901 217.709C415.458 217.926 415.909 218.233 416.255 218.632C416.606 219.03 416.782 219.566 416.782 220.24C416.782 220.662 416.686 221.052 416.492 221.409C416.299 221.761 416.021 222.071 415.657 222.341C415.294 222.604 414.857 222.81 414.348 222.956C413.838 223.103 413.264 223.176 412.625 223.176C411.717 223.176 410.949 223.015 410.322 222.692C409.695 222.364 409.221 221.954 408.898 221.462C408.582 220.964 408.424 220.46 408.424 219.95H411.184C411.195 220.243 411.266 220.483 411.395 220.671C411.529 220.858 411.708 220.996 411.931 221.084C412.153 221.172 412.411 221.216 412.704 221.216C412.974 221.216 413.196 221.178 413.372 221.102C413.554 221.025 413.691 220.923 413.785 220.794C413.879 220.659 413.926 220.504 413.926 220.328ZM422.188 220.891C422.463 220.891 422.697 220.841 422.891 220.741C423.09 220.636 423.239 220.489 423.339 220.302C423.444 220.108 423.494 219.877 423.488 219.607H426.274C426.28 220.322 426.104 220.949 425.747 221.488C425.396 222.021 424.915 222.438 424.306 222.736C423.702 223.029 423.02 223.176 422.258 223.176C421.514 223.176 420.863 223.056 420.307 222.815C419.75 222.569 419.284 222.229 418.909 221.796C418.54 221.356 418.262 220.844 418.074 220.258C417.893 219.672 417.802 219.036 417.802 218.351V218.148C417.802 217.463 417.893 216.827 418.074 216.241C418.262 215.649 418.54 215.137 418.909 214.703C419.284 214.264 419.747 213.924 420.298 213.684C420.854 213.438 421.502 213.314 422.24 213.314C423.031 213.314 423.729 213.464 424.332 213.763C424.941 214.062 425.419 214.495 425.765 215.063C426.11 215.632 426.28 216.32 426.274 217.129H423.488C423.494 216.842 423.45 216.584 423.356 216.355C423.263 216.127 423.116 215.945 422.917 215.811C422.724 215.67 422.475 215.6 422.17 215.6C421.865 215.6 421.619 215.667 421.432 215.802C421.244 215.937 421.101 216.124 421.001 216.364C420.907 216.599 420.843 216.868 420.808 217.173C420.778 217.478 420.764 217.803 420.764 218.148V218.351C420.764 218.702 420.778 219.033 420.808 219.344C420.843 219.648 420.91 219.918 421.01 220.152C421.109 220.381 421.253 220.562 421.44 220.697C421.628 220.826 421.877 220.891 422.188 220.891ZM430.528 215.846V223H427.566V213.49H430.335L430.528 215.846ZM433.341 213.42L433.288 216.171C433.171 216.159 433.013 216.145 432.813 216.127C432.614 216.109 432.447 216.101 432.312 216.101C431.967 216.101 431.668 216.142 431.416 216.224C431.17 216.3 430.965 216.417 430.801 216.575C430.643 216.728 430.525 216.921 430.449 217.155C430.379 217.39 430.347 217.662 430.353 217.973L429.816 217.621C429.816 216.982 429.878 216.402 430.001 215.881C430.13 215.354 430.312 214.899 430.546 214.519C430.78 214.132 431.064 213.836 431.398 213.631C431.732 213.42 432.107 213.314 432.523 213.314C432.67 213.314 432.813 213.323 432.954 213.341C433.101 213.358 433.229 213.385 433.341 213.42ZM437.489 213.49V223H434.519V213.49H437.489ZM434.343 211.038C434.343 210.616 434.495 210.271 434.8 210.001C435.104 209.731 435.5 209.597 435.986 209.597C436.473 209.597 436.868 209.731 437.173 210.001C437.478 210.271 437.63 210.616 437.63 211.038C437.63 211.46 437.478 211.806 437.173 212.075C436.868 212.345 436.473 212.479 435.986 212.479C435.5 212.479 435.104 212.345 434.8 212.075C434.495 211.806 434.343 211.46 434.343 211.038ZM442.306 215.318V226.656H439.344V213.49H442.104L442.306 215.318ZM448.142 218.131V218.315C448.142 219.007 448.062 219.648 447.904 220.24C447.746 220.832 447.512 221.348 447.201 221.787C446.891 222.227 446.504 222.569 446.041 222.815C445.584 223.056 445.054 223.176 444.45 223.176C443.882 223.176 443.393 223.05 442.982 222.798C442.572 222.546 442.229 222.197 441.954 221.752C441.679 221.307 441.456 220.797 441.286 220.223C441.116 219.648 440.981 219.042 440.882 218.403V218.166C440.981 217.48 441.116 216.845 441.286 216.259C441.456 215.667 441.679 215.151 441.954 214.712C442.229 214.272 442.569 213.93 442.974 213.684C443.384 213.438 443.873 213.314 444.441 213.314C445.045 213.314 445.575 213.429 446.032 213.657C446.495 213.886 446.882 214.214 447.192 214.642C447.509 215.063 447.746 215.57 447.904 216.162C448.062 216.754 448.142 217.41 448.142 218.131ZM445.18 218.315V218.131C445.18 217.762 445.153 217.425 445.101 217.12C445.048 216.81 444.963 216.54 444.846 216.312C444.734 216.083 444.585 215.907 444.397 215.784C444.21 215.661 443.979 215.6 443.703 215.6C443.387 215.6 443.12 215.649 442.903 215.749C442.692 215.843 442.522 215.989 442.394 216.188C442.271 216.382 442.183 216.625 442.13 216.918C442.083 217.205 442.062 217.542 442.068 217.929V218.649C442.057 219.095 442.101 219.487 442.2 219.827C442.3 220.161 442.473 220.422 442.719 220.609C442.965 220.797 443.299 220.891 443.721 220.891C444.002 220.891 444.236 220.826 444.424 220.697C444.611 220.562 444.761 220.378 444.872 220.144C444.983 219.903 445.062 219.628 445.109 219.317C445.156 219.007 445.18 218.673 445.18 218.315ZM454.47 213.49V215.547H448.739V213.49H454.47ZM449.943 211.126H452.905V219.897C452.905 220.149 452.935 220.346 452.993 220.486C453.052 220.621 453.151 220.718 453.292 220.776C453.438 220.829 453.632 220.855 453.872 220.855C454.042 220.855 454.183 220.853 454.294 220.847C454.405 220.835 454.511 220.82 454.61 220.803V222.921C454.358 223.003 454.095 223.064 453.819 223.105C453.544 223.152 453.251 223.176 452.94 223.176C452.308 223.176 451.766 223.076 451.314 222.877C450.869 222.678 450.529 222.364 450.295 221.937C450.061 221.509 449.943 220.952 449.943 220.267V211.126Z" fill="white"/>
<rect x="497" y="196" width="177" height="41" rx="3" fill="#424242"/>
<rect x="497" y="196" width="177" height="41" rx="3" stroke="#424242" stroke-width="4"/>
<path d="M525.576 218.658H522.395V216.276H525.576C526.01 216.276 526.361 216.203 526.631 216.057C526.9 215.91 527.097 215.708 527.22 215.45C527.349 215.187 527.413 214.891 527.413 214.562C527.413 214.211 527.349 213.886 527.22 213.587C527.097 213.288 526.9 213.048 526.631 212.866C526.361 212.679 526.01 212.585 525.576 212.585H523.555V223H520.47V210.203H525.576C526.602 210.203 527.483 210.391 528.222 210.766C528.966 211.141 529.537 211.656 529.936 212.312C530.334 212.963 530.533 213.707 530.533 214.545C530.533 215.371 530.334 216.092 529.936 216.707C529.537 217.322 528.966 217.803 528.222 218.148C527.483 218.488 526.602 218.658 525.576 218.658ZM535.112 221.884L537.573 213.49H540.755L536.932 224.415C536.85 224.655 536.741 224.913 536.606 225.188C536.472 225.47 536.287 225.736 536.053 225.988C535.818 226.24 535.517 226.445 535.147 226.604C534.784 226.762 534.333 226.841 533.794 226.841C533.507 226.841 533.296 226.826 533.161 226.797C533.032 226.773 532.833 226.729 532.563 226.665V224.547C532.64 224.547 532.704 224.547 532.757 224.547C532.815 224.547 532.88 224.547 532.95 224.547C533.267 224.547 533.519 224.515 533.706 224.45C533.899 224.386 534.046 224.292 534.146 224.169C534.251 224.046 534.333 223.896 534.392 223.721L535.112 221.884ZM534.488 213.49L536.36 220.144L536.686 223.281H534.699L531.315 213.49H534.488ZM546.538 213.49V215.547H540.808V213.49H546.538ZM542.012 211.126H544.974V219.897C544.974 220.149 545.003 220.346 545.062 220.486C545.12 220.621 545.22 220.718 545.36 220.776C545.507 220.829 545.7 220.855 545.94 220.855C546.11 220.855 546.251 220.853 546.362 220.847C546.474 220.835 546.579 220.82 546.679 220.803V222.921C546.427 223.003 546.163 223.064 545.888 223.105C545.612 223.152 545.319 223.176 545.009 223.176C544.376 223.176 543.834 223.076 543.383 222.877C542.938 222.678 542.598 222.364 542.363 221.937C542.129 221.509 542.012 220.952 542.012 220.267V211.126ZM550.616 209.5V223H547.654V209.5H550.616ZM550.265 217.92L549.57 217.938C549.57 217.27 549.652 216.654 549.816 216.092C549.98 215.529 550.215 215.04 550.52 214.624C550.824 214.208 551.19 213.886 551.618 213.657C552.046 213.429 552.521 213.314 553.042 213.314C553.511 213.314 553.938 213.382 554.325 213.517C554.718 213.651 555.055 213.868 555.336 214.167C555.623 214.466 555.843 214.855 555.995 215.336C556.153 215.816 556.232 216.402 556.232 217.094V223H553.253V217.076C553.253 216.689 553.197 216.391 553.086 216.18C552.98 215.963 552.828 215.813 552.629 215.731C552.43 215.644 552.187 215.6 551.899 215.6C551.554 215.6 551.272 215.658 551.056 215.775C550.839 215.893 550.672 216.057 550.555 216.268C550.443 216.473 550.367 216.716 550.326 216.997C550.285 217.278 550.265 217.586 550.265 217.92ZM557.507 218.342V218.157C557.507 217.46 557.606 216.818 557.806 216.232C558.005 215.641 558.298 215.128 558.685 214.694C559.071 214.261 559.549 213.924 560.117 213.684C560.686 213.438 561.342 213.314 562.086 213.314C562.836 213.314 563.495 213.438 564.063 213.684C564.638 213.924 565.118 214.261 565.505 214.694C565.892 215.128 566.185 215.641 566.384 216.232C566.583 216.818 566.683 217.46 566.683 218.157V218.342C566.683 219.033 566.583 219.675 566.384 220.267C566.185 220.853 565.892 221.365 565.505 221.805C565.118 222.238 564.641 222.575 564.072 222.815C563.504 223.056 562.848 223.176 562.104 223.176C561.359 223.176 560.7 223.056 560.126 222.815C559.552 222.575 559.071 222.238 558.685 221.805C558.298 221.365 558.005 220.853 557.806 220.267C557.606 219.675 557.507 219.033 557.507 218.342ZM560.469 218.157V218.342C560.469 218.699 560.495 219.033 560.548 219.344C560.601 219.654 560.688 219.927 560.812 220.161C560.935 220.39 561.102 220.568 561.312 220.697C561.523 220.826 561.787 220.891 562.104 220.891C562.414 220.891 562.672 220.826 562.877 220.697C563.088 220.568 563.255 220.39 563.378 220.161C563.501 219.927 563.589 219.654 563.642 219.344C563.694 219.033 563.721 218.699 563.721 218.342V218.157C563.721 217.812 563.694 217.486 563.642 217.182C563.589 216.871 563.501 216.599 563.378 216.364C563.255 216.124 563.088 215.937 562.877 215.802C562.666 215.667 562.402 215.6 562.086 215.6C561.775 215.6 561.515 215.667 561.304 215.802C561.099 215.937 560.935 216.124 560.812 216.364C560.688 216.599 560.601 216.871 560.548 217.182C560.495 217.486 560.469 217.812 560.469 218.157ZM570.91 215.521V223H567.948V213.49H570.726L570.91 215.521ZM570.559 217.92L569.864 217.938C569.864 217.211 569.952 216.563 570.128 215.995C570.304 215.421 570.553 214.935 570.875 214.536C571.197 214.138 571.581 213.836 572.026 213.631C572.478 213.42 572.979 213.314 573.529 213.314C573.969 213.314 574.37 213.379 574.733 213.508C575.103 213.637 575.419 213.845 575.683 214.132C575.952 214.419 576.157 214.8 576.298 215.274C576.444 215.743 576.518 216.323 576.518 217.015V223H573.538V217.006C573.538 216.625 573.485 216.335 573.38 216.136C573.274 215.931 573.122 215.79 572.923 215.714C572.724 215.638 572.48 215.6 572.193 215.6C571.889 215.6 571.631 215.658 571.42 215.775C571.209 215.893 571.039 216.057 570.91 216.268C570.787 216.473 570.696 216.716 570.638 216.997C570.585 217.278 570.559 217.586 570.559 217.92ZM578.39 218.043V217.797C578.39 216.584 578.513 215.479 578.759 214.483C579.011 213.481 579.348 212.603 579.77 211.847C580.191 211.091 580.66 210.464 581.176 209.966C581.697 209.462 582.23 209.102 582.775 208.885L583.329 210.344C583.001 210.584 582.682 210.912 582.371 211.328C582.066 211.738 581.791 212.245 581.545 212.849C581.299 213.452 581.103 214.161 580.956 214.976C580.815 215.79 580.745 216.725 580.745 217.779V218.061C580.745 219.115 580.815 220.05 580.956 220.864C581.103 221.679 581.299 222.388 581.545 222.991C581.791 223.595 582.066 224.102 582.371 224.512C582.682 224.928 583.001 225.256 583.329 225.496L582.775 226.955C582.23 226.732 581.697 226.372 581.176 225.874C580.66 225.376 580.191 224.749 579.77 223.993C579.348 223.237 579.011 222.361 578.759 221.365C578.513 220.363 578.39 219.256 578.39 218.043ZM587.75 210.203V223H584.665V210.203H587.75ZM592.725 215.529V217.902H586.871V215.529H592.725ZM593.226 210.203V212.585H586.871V210.203H593.226ZM599.009 220.609V216.689C599.009 216.42 598.971 216.188 598.895 215.995C598.818 215.802 598.698 215.652 598.534 215.547C598.37 215.436 598.15 215.38 597.875 215.38C597.652 215.38 597.462 215.418 597.304 215.494C597.146 215.57 597.025 215.685 596.943 215.837C596.861 215.989 596.82 216.183 596.82 216.417H593.858C593.858 215.978 593.955 215.57 594.148 215.195C594.348 214.814 594.629 214.483 594.992 214.202C595.361 213.921 595.801 213.704 596.311 213.552C596.826 213.394 597.4 213.314 598.033 213.314C598.789 213.314 599.463 213.44 600.055 213.692C600.652 213.944 601.124 214.322 601.47 214.826C601.815 215.324 601.988 215.951 601.988 216.707V220.601C601.988 221.222 602.023 221.693 602.094 222.016C602.164 222.332 602.264 222.61 602.393 222.851V223H599.422C599.281 222.707 599.176 222.35 599.105 221.928C599.041 221.5 599.009 221.061 599.009 220.609ZM599.369 217.19L599.387 218.772H598.077C597.802 218.772 597.567 218.811 597.374 218.887C597.187 218.963 597.034 219.068 596.917 219.203C596.806 219.332 596.724 219.479 596.671 219.643C596.624 219.807 596.601 219.979 596.601 220.161C596.601 220.337 596.642 220.495 596.724 220.636C596.812 220.771 596.929 220.876 597.075 220.952C597.222 221.028 597.386 221.066 597.567 221.066C597.896 221.066 598.174 221.005 598.402 220.882C598.637 220.753 598.815 220.598 598.938 220.416C599.062 220.234 599.123 220.064 599.123 219.906L599.773 221.119C599.656 221.354 599.521 221.591 599.369 221.831C599.223 222.071 599.038 222.294 598.815 222.499C598.599 222.698 598.332 222.862 598.016 222.991C597.699 223.114 597.315 223.176 596.864 223.176C596.278 223.176 595.739 223.056 595.247 222.815C594.761 222.575 594.371 222.241 594.078 221.813C593.785 221.38 593.639 220.882 593.639 220.319C593.639 219.827 593.727 219.388 593.902 219.001C594.084 218.614 594.356 218.286 594.72 218.017C595.083 217.747 595.546 217.542 596.108 217.401C596.671 217.261 597.333 217.19 598.095 217.19H599.369ZM608.615 220.328C608.615 220.164 608.56 220.023 608.448 219.906C608.343 219.783 608.155 219.672 607.886 219.572C607.616 219.467 607.238 219.361 606.752 219.256C606.289 219.156 605.853 219.024 605.442 218.86C605.038 218.696 604.684 218.497 604.379 218.263C604.074 218.028 603.834 217.75 603.658 217.428C603.488 217.105 603.403 216.736 603.403 216.32C603.403 215.916 603.488 215.535 603.658 215.178C603.834 214.814 604.089 214.495 604.423 214.22C604.763 213.938 605.176 213.719 605.662 213.561C606.148 213.396 606.702 213.314 607.323 213.314C608.179 213.314 608.917 213.446 609.538 213.71C610.159 213.968 610.637 214.331 610.971 214.8C611.311 215.263 611.48 215.799 611.48 216.408H608.519C608.519 216.168 608.478 215.963 608.396 215.793C608.319 215.623 608.193 215.494 608.018 215.406C607.842 215.312 607.607 215.266 607.314 215.266C607.109 215.266 606.922 215.304 606.752 215.38C606.588 215.456 606.456 215.562 606.356 215.696C606.257 215.831 606.207 215.989 606.207 216.171C606.207 216.3 606.236 216.417 606.295 216.522C606.359 216.622 606.456 216.716 606.585 216.804C606.714 216.886 606.878 216.962 607.077 217.032C607.276 217.097 607.517 217.155 607.798 217.208C608.437 217.325 609.034 217.492 609.591 217.709C610.147 217.926 610.599 218.233 610.944 218.632C611.296 219.03 611.472 219.566 611.472 220.24C611.472 220.662 611.375 221.052 611.182 221.409C610.988 221.761 610.71 222.071 610.347 222.341C609.983 222.604 609.547 222.81 609.037 222.956C608.527 223.103 607.953 223.176 607.314 223.176C606.406 223.176 605.639 223.015 605.012 222.692C604.385 222.364 603.91 221.954 603.588 221.462C603.271 220.964 603.113 220.46 603.113 219.95H605.873C605.885 220.243 605.955 220.483 606.084 220.671C606.219 220.858 606.397 220.996 606.62 221.084C606.843 221.172 607.101 221.216 607.394 221.216C607.663 221.216 607.886 221.178 608.062 221.102C608.243 221.025 608.381 220.923 608.475 220.794C608.568 220.659 608.615 220.504 608.615 220.328ZM617.87 213.49V215.547H612.14V213.49H617.87ZM613.344 211.126H616.306V219.897C616.306 220.149 616.335 220.346 616.394 220.486C616.452 220.621 616.552 220.718 616.692 220.776C616.839 220.829 617.032 220.855 617.272 220.855C617.442 220.855 617.583 220.853 617.694 220.847C617.806 220.835 617.911 220.82 618.011 220.803V222.921C617.759 223.003 617.495 223.064 617.22 223.105C616.944 223.152 616.651 223.176 616.341 223.176C615.708 223.176 615.166 223.076 614.715 222.877C614.27 222.678 613.93 222.364 613.695 221.937C613.461 221.509 613.344 220.952 613.344 220.267V211.126ZM624.611 212.893L621.491 223H618.178L622.88 210.203H624.98L624.611 212.893ZM627.195 223L624.066 212.893L623.662 210.203H625.789L630.518 223H627.195ZM627.072 218.228V220.609H620.507V218.228H627.072ZM633.884 215.318V226.656H630.922V213.49H633.682L633.884 215.318ZM639.72 218.131V218.315C639.72 219.007 639.641 219.648 639.482 220.24C639.324 220.832 639.09 221.348 638.779 221.787C638.469 222.227 638.082 222.569 637.619 222.815C637.162 223.056 636.632 223.176 636.028 223.176C635.46 223.176 634.971 223.05 634.561 222.798C634.15 222.546 633.808 222.197 633.532 221.752C633.257 221.307 633.034 220.797 632.864 220.223C632.694 219.648 632.56 219.042 632.46 218.403V218.166C632.56 217.48 632.694 216.845 632.864 216.259C633.034 215.667 633.257 215.151 633.532 214.712C633.808 214.272 634.147 213.93 634.552 213.684C634.962 213.438 635.451 213.314 636.02 213.314C636.623 213.314 637.153 213.429 637.61 213.657C638.073 213.886 638.46 214.214 638.771 214.642C639.087 215.063 639.324 215.57 639.482 216.162C639.641 216.754 639.72 217.41 639.72 218.131ZM636.758 218.315V218.131C636.758 217.762 636.731 217.425 636.679 217.12C636.626 216.81 636.541 216.54 636.424 216.312C636.312 216.083 636.163 215.907 635.976 215.784C635.788 215.661 635.557 215.6 635.281 215.6C634.965 215.6 634.698 215.649 634.481 215.749C634.271 215.843 634.101 215.989 633.972 216.188C633.849 216.382 633.761 216.625 633.708 216.918C633.661 217.205 633.641 217.542 633.646 217.929V218.649C633.635 219.095 633.679 219.487 633.778 219.827C633.878 220.161 634.051 220.422 634.297 220.609C634.543 220.797 634.877 220.891 635.299 220.891C635.58 220.891 635.814 220.826 636.002 220.697C636.189 220.562 636.339 220.378 636.45 220.144C636.562 219.903 636.641 219.628 636.688 219.317C636.734 219.007 636.758 218.673 636.758 218.315ZM644.167 213.49V223H641.196V213.49H644.167ZM641.021 211.038C641.021 210.616 641.173 210.271 641.478 210.001C641.782 209.731 642.178 209.597 642.664 209.597C643.15 209.597 643.546 209.731 643.851 210.001C644.155 210.271 644.308 210.616 644.308 211.038C644.308 211.46 644.155 211.806 643.851 212.075C643.546 212.345 643.15 212.479 642.664 212.479C642.178 212.479 641.782 212.345 641.478 212.075C641.173 211.806 641.021 211.46 641.021 211.038ZM650.662 217.797V218.043C650.662 219.197 650.53 220.27 650.267 221.26C650.009 222.25 649.66 223.132 649.221 223.905C648.781 224.679 648.289 225.323 647.744 225.839C647.205 226.36 646.651 226.732 646.083 226.955L645.512 225.496C645.84 225.256 646.156 224.928 646.461 224.512C646.771 224.102 647.05 223.595 647.296 222.991C647.542 222.388 647.735 221.679 647.876 220.864C648.022 220.05 648.096 219.115 648.096 218.061V217.779C648.096 216.725 648.022 215.79 647.876 214.976C647.735 214.161 647.542 213.452 647.296 212.849C647.05 212.245 646.771 211.738 646.461 211.328C646.156 210.912 645.84 210.584 645.512 210.344L646.083 208.885C646.651 209.102 647.205 209.471 647.744 209.992C648.289 210.514 648.781 211.161 649.221 211.935C649.66 212.708 650.009 213.59 650.267 214.58C650.53 215.57 650.662 216.643 650.662 217.797Z" fill="white"/>
<rect x="694" y="196" width="133" height="41" rx="3" fill="#424242"/>
<rect x="694" y="196" width="133" height="41" rx="3" stroke="#424242" stroke-width="4"/>
<path d="M725.66 220.627V223H719.191V220.627H725.66ZM720.29 210.203V223H717.205V210.203H720.29ZM731.76 220.609V216.689C731.76 216.42 731.722 216.188 731.646 215.995C731.569 215.802 731.449 215.652 731.285 215.547C731.121 215.436 730.901 215.38 730.626 215.38C730.403 215.38 730.213 215.418 730.055 215.494C729.896 215.57 729.776 215.685 729.694 215.837C729.612 215.989 729.571 216.183 729.571 216.417H726.609C726.609 215.978 726.706 215.57 726.899 215.195C727.099 214.814 727.38 214.483 727.743 214.202C728.112 213.921 728.552 213.704 729.062 213.552C729.577 213.394 730.151 213.314 730.784 213.314C731.54 213.314 732.214 213.44 732.806 213.692C733.403 213.944 733.875 214.322 734.221 214.826C734.566 215.324 734.739 215.951 734.739 216.707V220.601C734.739 221.222 734.774 221.693 734.845 222.016C734.915 222.332 735.015 222.61 735.144 222.851V223H732.173C732.032 222.707 731.927 222.35 731.856 221.928C731.792 221.5 731.76 221.061 731.76 220.609ZM732.12 217.19L732.138 218.772H730.828C730.553 218.772 730.318 218.811 730.125 218.887C729.938 218.963 729.785 219.068 729.668 219.203C729.557 219.332 729.475 219.479 729.422 219.643C729.375 219.807 729.352 219.979 729.352 220.161C729.352 220.337 729.393 220.495 729.475 220.636C729.562 220.771 729.68 220.876 729.826 220.952C729.973 221.028 730.137 221.066 730.318 221.066C730.646 221.066 730.925 221.005 731.153 220.882C731.388 220.753 731.566 220.598 731.689 220.416C731.812 220.234 731.874 220.064 731.874 219.906L732.524 221.119C732.407 221.354 732.272 221.591 732.12 221.831C731.974 222.071 731.789 222.294 731.566 222.499C731.35 222.698 731.083 222.862 730.767 222.991C730.45 223.114 730.066 223.176 729.615 223.176C729.029 223.176 728.49 223.056 727.998 222.815C727.512 222.575 727.122 222.241 726.829 221.813C726.536 221.38 726.39 220.882 726.39 220.319C726.39 219.827 726.478 219.388 726.653 219.001C726.835 218.614 727.107 218.286 727.471 218.017C727.834 217.747 728.297 217.542 728.859 217.401C729.422 217.261 730.084 217.19 730.846 217.19H732.12ZM739.292 215.521V223H736.33V213.49H739.107L739.292 215.521ZM738.94 217.92L738.246 217.938C738.246 217.211 738.334 216.563 738.51 215.995C738.686 215.421 738.935 214.935 739.257 214.536C739.579 214.138 739.963 213.836 740.408 213.631C740.859 213.42 741.36 213.314 741.911 213.314C742.351 213.314 742.752 213.379 743.115 213.508C743.484 213.637 743.801 213.845 744.064 214.132C744.334 214.419 744.539 214.8 744.68 215.274C744.826 215.743 744.899 216.323 744.899 217.015V223H741.92V217.006C741.92 216.625 741.867 216.335 741.762 216.136C741.656 215.931 741.504 215.79 741.305 215.714C741.105 215.638 740.862 215.6 740.575 215.6C740.271 215.6 740.013 215.658 739.802 215.775C739.591 215.893 739.421 216.057 739.292 216.268C739.169 216.473 739.078 216.716 739.02 216.997C738.967 217.278 738.94 217.586 738.94 217.92ZM752.52 213.49H755.209V222.631C755.209 223.51 755.007 224.254 754.603 224.863C754.198 225.479 753.633 225.944 752.906 226.261C752.186 226.583 751.342 226.744 750.375 226.744C749.947 226.744 749.511 226.688 749.065 226.577C748.62 226.472 748.204 226.313 747.817 226.103C747.431 225.892 747.105 225.631 746.842 225.32L748.081 223.58C748.321 223.85 748.623 224.078 748.986 224.266C749.35 224.459 749.777 224.556 750.27 224.556C750.697 224.556 751.055 224.479 751.342 224.327C751.635 224.175 751.857 223.952 752.01 223.659C752.162 223.372 752.238 223.023 752.238 222.613V215.74L752.52 213.49ZM746.2 218.359V218.175C746.2 217.454 746.288 216.798 746.464 216.206C746.646 215.608 746.903 215.096 747.237 214.668C747.577 214.234 747.987 213.9 748.468 213.666C748.948 213.432 749.49 213.314 750.094 213.314C750.744 213.314 751.277 213.44 751.693 213.692C752.115 213.938 752.452 214.284 752.704 214.729C752.962 215.175 753.161 215.696 753.302 216.294C753.448 216.886 753.571 217.524 753.671 218.21V218.43C753.571 219.074 753.434 219.684 753.258 220.258C753.088 220.826 752.865 221.33 752.59 221.77C752.314 222.209 751.969 222.555 751.553 222.807C751.143 223.053 750.65 223.176 750.076 223.176C749.479 223.176 748.939 223.056 748.459 222.815C747.984 222.575 747.577 222.238 747.237 221.805C746.903 221.371 746.646 220.861 746.464 220.275C746.288 219.689 746.2 219.051 746.2 218.359ZM749.162 218.175V218.359C749.162 218.717 749.194 219.048 749.259 219.353C749.329 219.657 749.435 219.927 749.575 220.161C749.716 220.39 749.889 220.568 750.094 220.697C750.305 220.826 750.551 220.891 750.832 220.891C751.26 220.891 751.605 220.8 751.869 220.618C752.133 220.437 752.323 220.179 752.44 219.845C752.558 219.511 752.607 219.118 752.59 218.667V217.973C752.602 217.586 752.575 217.246 752.511 216.953C752.446 216.654 752.344 216.405 752.203 216.206C752.068 216.007 751.887 215.857 751.658 215.758C751.436 215.652 751.166 215.6 750.85 215.6C750.574 215.6 750.331 215.664 750.12 215.793C749.909 215.922 749.733 216.104 749.593 216.338C749.452 216.566 749.344 216.839 749.268 217.155C749.197 217.466 749.162 217.806 749.162 218.175ZM767.522 216.162V221.418C767.306 221.658 766.972 221.916 766.521 222.191C766.075 222.461 765.513 222.692 764.833 222.886C764.153 223.079 763.354 223.176 762.434 223.176C761.584 223.176 760.813 223.041 760.122 222.771C759.431 222.496 758.836 222.095 758.338 221.567C757.846 221.034 757.465 220.384 757.195 219.616C756.932 218.843 756.8 217.958 756.8 216.962V216.25C756.8 215.254 756.935 214.369 757.204 213.596C757.474 212.822 757.852 212.172 758.338 211.645C758.83 211.111 759.407 210.707 760.069 210.432C760.737 210.156 761.47 210.019 762.267 210.019C763.444 210.019 764.402 210.206 765.141 210.581C765.879 210.95 766.438 211.463 766.819 212.119C767.2 212.77 767.432 213.522 767.514 214.378H764.552C764.493 213.956 764.382 213.599 764.218 213.306C764.06 213.007 763.831 212.781 763.532 212.629C763.233 212.471 762.847 212.392 762.372 212.392C762.003 212.392 761.666 212.471 761.361 212.629C761.062 212.787 760.808 213.027 760.597 213.35C760.386 213.666 760.222 214.064 760.104 214.545C759.993 215.025 759.938 215.588 759.938 216.232V216.962C759.938 217.601 759.99 218.16 760.096 218.641C760.207 219.121 760.371 219.522 760.588 219.845C760.811 220.161 761.092 220.401 761.432 220.565C761.777 220.724 762.185 220.803 762.653 220.803C762.981 220.803 763.263 220.776 763.497 220.724C763.731 220.665 763.925 220.595 764.077 220.513C764.235 220.425 764.355 220.343 764.438 220.267V218.28H762.293V216.162H767.522ZM772.172 215.846V223H769.21V213.49H771.979L772.172 215.846ZM774.984 213.42L774.932 216.171C774.814 216.159 774.656 216.145 774.457 216.127C774.258 216.109 774.091 216.101 773.956 216.101C773.61 216.101 773.312 216.142 773.06 216.224C772.813 216.3 772.608 216.417 772.444 216.575C772.286 216.728 772.169 216.921 772.093 217.155C772.022 217.39 771.99 217.662 771.996 217.973L771.46 217.621C771.46 216.982 771.521 216.402 771.645 215.881C771.773 215.354 771.955 214.899 772.189 214.519C772.424 214.132 772.708 213.836 773.042 213.631C773.376 213.42 773.751 213.314 774.167 213.314C774.313 213.314 774.457 213.323 774.598 213.341C774.744 213.358 774.873 213.385 774.984 213.42ZM780.68 220.609V216.689C780.68 216.42 780.642 216.188 780.565 215.995C780.489 215.802 780.369 215.652 780.205 215.547C780.041 215.436 779.821 215.38 779.546 215.38C779.323 215.38 779.133 215.418 778.975 215.494C778.816 215.57 778.696 215.685 778.614 215.837C778.532 215.989 778.491 216.183 778.491 216.417H775.529C775.529 215.978 775.626 215.57 775.819 215.195C776.019 214.814 776.3 214.483 776.663 214.202C777.032 213.921 777.472 213.704 777.981 213.552C778.497 213.394 779.071 213.314 779.704 213.314C780.46 213.314 781.134 213.44 781.726 213.692C782.323 213.944 782.795 214.322 783.141 214.826C783.486 215.324 783.659 215.951 783.659 216.707V220.601C783.659 221.222 783.694 221.693 783.765 222.016C783.835 222.332 783.935 222.61 784.063 222.851V223H781.093C780.952 222.707 780.847 222.35 780.776 221.928C780.712 221.5 780.68 221.061 780.68 220.609ZM781.04 217.19L781.058 218.772H779.748C779.473 218.772 779.238 218.811 779.045 218.887C778.857 218.963 778.705 219.068 778.588 219.203C778.477 219.332 778.395 219.479 778.342 219.643C778.295 219.807 778.271 219.979 778.271 220.161C778.271 220.337 778.312 220.495 778.395 220.636C778.482 220.771 778.6 220.876 778.746 220.952C778.893 221.028 779.057 221.066 779.238 221.066C779.566 221.066 779.845 221.005 780.073 220.882C780.308 220.753 780.486 220.598 780.609 220.416C780.732 220.234 780.794 220.064 780.794 219.906L781.444 221.119C781.327 221.354 781.192 221.591 781.04 221.831C780.894 222.071 780.709 222.294 780.486 222.499C780.27 222.698 780.003 222.862 779.687 222.991C779.37 223.114 778.986 223.176 778.535 223.176C777.949 223.176 777.41 223.056 776.918 222.815C776.432 222.575 776.042 222.241 775.749 221.813C775.456 221.38 775.31 220.882 775.31 220.319C775.31 219.827 775.397 219.388 775.573 219.001C775.755 218.614 776.027 218.286 776.391 218.017C776.754 217.747 777.217 217.542 777.779 217.401C778.342 217.261 779.004 217.19 779.766 217.19H781.04ZM788.291 215.318V226.656H785.329V213.49H788.089L788.291 215.318ZM794.127 218.131V218.315C794.127 219.007 794.048 219.648 793.89 220.24C793.731 220.832 793.497 221.348 793.187 221.787C792.876 222.227 792.489 222.569 792.026 222.815C791.569 223.056 791.039 223.176 790.436 223.176C789.867 223.176 789.378 223.05 788.968 222.798C788.558 222.546 788.215 222.197 787.939 221.752C787.664 221.307 787.441 220.797 787.271 220.223C787.102 219.648 786.967 219.042 786.867 218.403V218.166C786.967 217.48 787.102 216.845 787.271 216.259C787.441 215.667 787.664 215.151 787.939 214.712C788.215 214.272 788.555 213.93 788.959 213.684C789.369 213.438 789.858 213.314 790.427 213.314C791.03 213.314 791.561 213.429 792.018 213.657C792.48 213.886 792.867 214.214 793.178 214.642C793.494 215.063 793.731 215.57 793.89 216.162C794.048 216.754 794.127 217.41 794.127 218.131ZM791.165 218.315V218.131C791.165 217.762 791.139 217.425 791.086 217.12C791.033 216.81 790.948 216.54 790.831 216.312C790.72 216.083 790.57 215.907 790.383 215.784C790.195 215.661 789.964 215.6 789.688 215.6C789.372 215.6 789.105 215.649 788.889 215.749C788.678 215.843 788.508 215.989 788.379 216.188C788.256 216.382 788.168 216.625 788.115 216.918C788.068 217.205 788.048 217.542 788.054 217.929V218.649C788.042 219.095 788.086 219.487 788.186 219.827C788.285 220.161 788.458 220.422 788.704 220.609C788.95 220.797 789.284 220.891 789.706 220.891C789.987 220.891 790.222 220.826 790.409 220.697C790.597 220.562 790.746 220.378 790.857 220.144C790.969 219.903 791.048 219.628 791.095 219.317C791.142 219.007 791.165 218.673 791.165 218.315ZM798.346 209.5V223H795.384V209.5H798.346ZM797.994 217.92L797.3 217.938C797.3 217.27 797.382 216.654 797.546 216.092C797.71 215.529 797.944 215.04 798.249 214.624C798.554 214.208 798.92 213.886 799.348 213.657C799.775 213.429 800.25 213.314 800.771 213.314C801.24 213.314 801.668 213.382 802.055 213.517C802.447 213.651 802.784 213.868 803.065 214.167C803.353 214.466 803.572 214.855 803.725 215.336C803.883 215.816 803.962 216.402 803.962 217.094V223H800.982V217.076C800.982 216.689 800.927 216.391 800.815 216.18C800.71 215.963 800.558 215.813 800.358 215.731C800.159 215.644 799.916 215.6 799.629 215.6C799.283 215.6 799.002 215.658 798.785 215.775C798.568 215.893 798.401 216.057 798.284 216.268C798.173 216.473 798.097 216.716 798.056 216.997C798.015 217.278 797.994 217.586 797.994 217.92Z" fill="white"/>
<path d="M1066 0H1348C1356.28 0 1363 6.71573 1363 15V282C1363 290.284 1356.28 297 1348 297H1066V0Z" fill="white"/>
<path d="M1233.36 153.889C1228.36 153.889 1223.56 155.876 1220.02 159.413C1216.49 162.95 1214.5 167.748 1214.5 172.75M1214.5 172.75V178.139M1214.5 172.75C1214.5 167.748 1212.51 162.95 1208.98 159.413C1205.44 155.876 1200.64 153.889 1195.64 153.889M1214.5 178.139C1214.5 183.141 1216.49 187.939 1220.02 191.476C1223.56 195.013 1228.36 197 1233.36 197C1238.36 197 1243.16 195.013 1246.7 191.476C1250.24 187.939 1252.22 183.141 1252.22 178.139V168.439M1214.5 178.139C1214.5 183.141 1212.51 187.939 1208.98 191.476C1205.44 195.013 1200.64 197 1195.64 197C1190.64 197 1185.84 195.013 1182.3 191.476C1178.76 187.939 1176.78 183.141 1176.78 178.139V168.439" stroke="#2563EB" stroke-width="6" stroke-linecap="round" stroke-linejoin="round"/>
<path d="M1244.14 170.056C1249.14 170.056 1253.94 168.068 1257.48 164.531C1261.01 160.994 1263 156.197 1263 151.194C1263 146.192 1261.01 141.395 1257.48 137.858C1253.94 134.321 1249.14 132.333 1244.14 132.333H1241.44" stroke="#2563EB" stroke-width="6" stroke-linecap="round" stroke-linejoin="round"/>
<path d="M1252.22 133.95V118.861C1252.22 113.859 1250.24 109.061 1246.7 105.524C1243.16 101.987 1238.36 100 1233.36 100C1228.36 100 1223.56 101.987 1220.02 105.524C1216.49 109.061 1214.5 113.859 1214.5 118.861M1184.86 170.056C1179.86 170.056 1175.06 168.068 1171.52 164.531C1167.99 160.994 1166 156.197 1166 151.194C1166 146.192 1167.99 141.395 1171.52 137.858C1175.06 134.32 1179.86 132.333 1184.86 132.333H1187.56" stroke="#2563EB" stroke-width="6" stroke-linecap="round" stroke-linejoin="round"/>
<path d="M1176.78 133.95V118.861C1176.78 113.859 1178.76 109.061 1182.3 105.524C1185.84 101.987 1190.64 100 1195.64 100C1200.64 100 1205.44 101.987 1208.98 105.524C1212.51 109.061 1214.5 113.859 1214.5 118.861V172.75" stroke="#2563EB" stroke-width="6" stroke-linecap="round" stroke-linejoin="round"/>
</svg>
