<svg width="1363" height="163" viewBox="0 0 1363 163" fill="none" xmlns="http://www.w3.org/2000/svg">
<path d="M0 15C0 6.71573 6.71573 0 15 0H37V163H15C6.71573 163 0 156.284 0 148V15Z" fill="#424242"/>
<rect width="1097" height="163" transform="translate(37)" fill="#F0F0F0"/>
<path d="M101.906 53.9219L94.3945 51.2383V48.0859L104.602 52.375V54.6367L101.906 53.9219ZM94.3945 56.1719L101.918 53.4297L104.602 52.7852V55.0352L94.3945 59.3242V56.1719ZM121.781 56.5352C121.781 56.2305 121.734 55.957 121.641 55.7148C121.555 55.4648 121.391 55.2383 121.148 55.0352C120.906 54.8242 120.566 54.6172 120.129 54.4141C119.691 54.2109 119.125 54 118.43 53.7812C117.656 53.5312 116.922 53.25 116.227 52.9375C115.539 52.625 114.93 52.2617 114.398 51.8477C113.875 51.4258 113.461 50.9375 113.156 50.3828C112.859 49.8281 112.711 49.1836 112.711 48.4492C112.711 47.7383 112.867 47.0938 113.18 46.5156C113.492 45.9297 113.93 45.4297 114.492 45.0156C115.055 44.5938 115.719 44.2695 116.484 44.043C117.258 43.8164 118.105 43.7031 119.027 43.7031C120.285 43.7031 121.383 43.9297 122.32 44.3828C123.258 44.8359 123.984 45.457 124.5 46.2461C125.023 47.0352 125.285 47.9375 125.285 48.9531H121.793C121.793 48.4531 121.688 48.0156 121.477 47.6406C121.273 47.2578 120.961 46.957 120.539 46.7383C120.125 46.5195 119.602 46.4102 118.969 46.4102C118.359 46.4102 117.852 46.5039 117.445 46.6914C117.039 46.8711 116.734 47.1172 116.531 47.4297C116.328 47.7344 116.227 48.0781 116.227 48.4609C116.227 48.75 116.297 49.0117 116.438 49.2461C116.586 49.4805 116.805 49.6992 117.094 49.9023C117.383 50.1055 117.738 50.2969 118.16 50.4766C118.582 50.6562 119.07 50.832 119.625 51.0039C120.555 51.2852 121.371 51.6016 122.074 51.9531C122.785 52.3047 123.379 52.6992 123.855 53.1367C124.332 53.5742 124.691 54.0703 124.934 54.625C125.176 55.1797 125.297 55.8086 125.297 56.5117C125.297 57.2539 125.152 57.918 124.863 58.5039C124.574 59.0898 124.156 59.5859 123.609 59.9922C123.062 60.3984 122.41 60.707 121.652 60.918C120.895 61.1289 120.047 61.2344 119.109 61.2344C118.266 61.2344 117.434 61.125 116.613 60.9062C115.793 60.6797 115.047 60.3398 114.375 59.8867C113.711 59.4336 113.18 58.8555 112.781 58.1523C112.383 57.4492 112.184 56.6172 112.184 55.6562H115.711C115.711 56.1875 115.793 56.6367 115.957 57.0039C116.121 57.3711 116.352 57.668 116.648 57.8945C116.953 58.1211 117.312 58.2852 117.727 58.3867C118.148 58.4883 118.609 58.5391 119.109 58.5391C119.719 58.5391 120.219 58.4531 120.609 58.2812C121.008 58.1094 121.301 57.8711 121.488 57.5664C121.684 57.2617 121.781 56.918 121.781 56.5352ZM130.852 50.9453V61H127.465V48.3203H130.641L130.852 50.9453ZM130.383 54.2148H129.445C129.445 53.332 129.551 52.5195 129.762 51.7773C129.98 51.0273 130.297 50.3789 130.711 49.832C131.133 49.2773 131.652 48.8477 132.27 48.543C132.887 48.2383 133.602 48.0859 134.414 48.0859C134.977 48.0859 135.492 48.1719 135.961 48.3438C136.43 48.5078 136.832 48.7695 137.168 49.1289C137.512 49.4805 137.777 49.9414 137.965 50.5117C138.152 51.0742 138.246 51.75 138.246 52.5391V61H134.871V52.9141C134.871 52.3359 134.793 51.8906 134.637 51.5781C134.48 51.2656 134.258 51.0469 133.969 50.9219C133.688 50.7969 133.348 50.7344 132.949 50.7344C132.512 50.7344 132.129 50.8242 131.801 51.0039C131.48 51.1836 131.215 51.4336 131.004 51.7539C130.793 52.0664 130.637 52.4336 130.535 52.8555C130.434 53.2773 130.383 53.7305 130.383 54.2148ZM137.93 53.8281L136.723 53.9805C136.723 53.1523 136.824 52.3828 137.027 51.6719C137.238 50.9609 137.547 50.3359 137.953 49.7969C138.367 49.2578 138.879 48.8398 139.488 48.543C140.098 48.2383 140.801 48.0859 141.598 48.0859C142.207 48.0859 142.762 48.1758 143.262 48.3555C143.762 48.5273 144.188 48.8047 144.539 49.1875C144.898 49.5625 145.172 50.0547 145.359 50.6641C145.555 51.2734 145.652 52.0195 145.652 52.9023V61H142.266V52.9023C142.266 52.3164 142.188 51.8711 142.031 51.5664C141.883 51.2539 141.664 51.0391 141.375 50.9219C141.094 50.7969 140.758 50.7344 140.367 50.7344C139.961 50.7344 139.605 50.8164 139.301 50.9805C138.996 51.1367 138.742 51.3555 138.539 51.6367C138.336 51.918 138.184 52.2461 138.082 52.6211C137.98 52.9883 137.93 53.3906 137.93 53.8281ZM155.109 58.1406V52.4922C155.109 52.0859 155.043 51.7383 154.91 51.4492C154.777 51.1523 154.57 50.9219 154.289 50.7578C154.016 50.5938 153.66 50.5117 153.223 50.5117C152.848 50.5117 152.523 50.5781 152.25 50.7109C151.977 50.8359 151.766 51.0195 151.617 51.2617C151.469 51.4961 151.395 51.7734 151.395 52.0938H148.02C148.02 51.5547 148.145 51.043 148.395 50.5586C148.645 50.0742 149.008 49.6484 149.484 49.2812C149.961 48.9062 150.527 48.6133 151.184 48.4023C151.848 48.1914 152.59 48.0859 153.41 48.0859C154.395 48.0859 155.27 48.25 156.035 48.5781C156.801 48.9062 157.402 49.3984 157.84 50.0547C158.285 50.7109 158.508 51.5312 158.508 52.5156V57.9414C158.508 58.6367 158.551 59.207 158.637 59.6523C158.723 60.0898 158.848 60.4727 159.012 60.8008V61H155.602C155.438 60.6562 155.312 60.2266 155.227 59.7109C155.148 59.1875 155.109 58.6641 155.109 58.1406ZM155.555 53.2773L155.578 55.1875H153.691C153.246 55.1875 152.859 55.2383 152.531 55.3398C152.203 55.4414 151.934 55.5859 151.723 55.7734C151.512 55.9531 151.355 56.1641 151.254 56.4062C151.16 56.6484 151.113 56.9141 151.113 57.2031C151.113 57.4922 151.18 57.7539 151.312 57.9883C151.445 58.2148 151.637 58.3945 151.887 58.5273C152.137 58.6523 152.43 58.7148 152.766 58.7148C153.273 58.7148 153.715 58.6133 154.09 58.4102C154.465 58.207 154.754 57.957 154.957 57.6602C155.168 57.3633 155.277 57.082 155.285 56.8164L156.176 58.2461C156.051 58.5664 155.879 58.8984 155.66 59.2422C155.449 59.5859 155.18 59.9102 154.852 60.2148C154.523 60.5117 154.129 60.7578 153.668 60.9531C153.207 61.1406 152.66 61.2344 152.027 61.2344C151.223 61.2344 150.492 61.0742 149.836 60.7539C149.188 60.4258 148.672 59.9766 148.289 59.4062C147.914 58.8281 147.727 58.1719 147.727 57.4375C147.727 56.7734 147.852 56.1836 148.102 55.668C148.352 55.1523 148.719 54.7188 149.203 54.3672C149.695 54.0078 150.309 53.7383 151.043 53.5586C151.777 53.3711 152.629 53.2773 153.598 53.2773H155.555ZM164.484 51.0859V61H161.109V48.3203H164.285L164.484 51.0859ZM168.305 48.2383L168.246 51.3672C168.082 51.3438 167.883 51.3242 167.648 51.3086C167.422 51.2852 167.215 51.2734 167.027 51.2734C166.551 51.2734 166.137 51.3359 165.785 51.4609C165.441 51.5781 165.152 51.7539 164.918 51.9883C164.691 52.2227 164.52 52.5078 164.402 52.8438C164.293 53.1797 164.23 53.5625 164.215 53.9922L163.535 53.7812C163.535 52.9609 163.617 52.207 163.781 51.5195C163.945 50.8242 164.184 50.2188 164.496 49.7031C164.816 49.1875 165.207 48.7891 165.668 48.5078C166.129 48.2266 166.656 48.0859 167.25 48.0859C167.438 48.0859 167.629 48.1016 167.824 48.1328C168.02 48.1562 168.18 48.1914 168.305 48.2383ZM176.695 48.3203V50.7109H169.312V48.3203H176.695ZM171.141 45.1914H174.516V57.1797C174.516 57.5469 174.562 57.8281 174.656 58.0234C174.758 58.2188 174.906 58.3555 175.102 58.4336C175.297 58.5039 175.543 58.5391 175.84 58.5391C176.051 58.5391 176.238 58.5312 176.402 58.5156C176.574 58.4922 176.719 58.4688 176.836 58.4453L176.848 60.9297C176.559 61.0234 176.246 61.0977 175.91 61.1523C175.574 61.207 175.203 61.2344 174.797 61.2344C174.055 61.2344 173.406 61.1133 172.852 60.8711C172.305 60.6211 171.883 60.2227 171.586 59.6758C171.289 59.1289 171.141 58.4102 171.141 57.5195V45.1914ZM187.711 56.5352C187.711 56.2305 187.664 55.957 187.57 55.7148C187.484 55.4648 187.32 55.2383 187.078 55.0352C186.836 54.8242 186.496 54.6172 186.059 54.4141C185.621 54.2109 185.055 54 184.359 53.7812C183.586 53.5312 182.852 53.25 182.156 52.9375C181.469 52.625 180.859 52.2617 180.328 51.8477C179.805 51.4258 179.391 50.9375 179.086 50.3828C178.789 49.8281 178.641 49.1836 178.641 48.4492C178.641 47.7383 178.797 47.0938 179.109 46.5156C179.422 45.9297 179.859 45.4297 180.422 45.0156C180.984 44.5938 181.648 44.2695 182.414 44.043C183.188 43.8164 184.035 43.7031 184.957 43.7031C186.215 43.7031 187.312 43.9297 188.25 44.3828C189.188 44.8359 189.914 45.457 190.43 46.2461C190.953 47.0352 191.215 47.9375 191.215 48.9531H187.723C187.723 48.4531 187.617 48.0156 187.406 47.6406C187.203 47.2578 186.891 46.957 186.469 46.7383C186.055 46.5195 185.531 46.4102 184.898 46.4102C184.289 46.4102 183.781 46.5039 183.375 46.6914C182.969 46.8711 182.664 47.1172 182.461 47.4297C182.258 47.7344 182.156 48.0781 182.156 48.4609C182.156 48.75 182.227 49.0117 182.367 49.2461C182.516 49.4805 182.734 49.6992 183.023 49.9023C183.312 50.1055 183.668 50.2969 184.09 50.4766C184.512 50.6562 185 50.832 185.555 51.0039C186.484 51.2852 187.301 51.6016 188.004 51.9531C188.715 52.3047 189.309 52.6992 189.785 53.1367C190.262 53.5742 190.621 54.0703 190.863 54.625C191.105 55.1797 191.227 55.8086 191.227 56.5117C191.227 57.2539 191.082 57.918 190.793 58.5039C190.504 59.0898 190.086 59.5859 189.539 59.9922C188.992 60.3984 188.34 60.707 187.582 60.918C186.824 61.1289 185.977 61.2344 185.039 61.2344C184.195 61.2344 183.363 61.125 182.543 60.9062C181.723 60.6797 180.977 60.3398 180.305 59.8867C179.641 59.4336 179.109 58.8555 178.711 58.1523C178.312 57.4492 178.113 56.6172 178.113 55.6562H181.641C181.641 56.1875 181.723 56.6367 181.887 57.0039C182.051 57.3711 182.281 57.668 182.578 57.8945C182.883 58.1211 183.242 58.2852 183.656 58.3867C184.078 58.4883 184.539 58.5391 185.039 58.5391C185.648 58.5391 186.148 58.4531 186.539 58.2812C186.938 58.1094 187.23 57.8711 187.418 57.5664C187.613 57.2617 187.711 56.918 187.711 56.5352ZM196.699 43V61H193.324V43H196.699ZM196.219 54.2148H195.293C195.301 53.332 195.418 52.5195 195.645 51.7773C195.871 51.0273 196.195 50.3789 196.617 49.832C197.039 49.2773 197.543 48.8477 198.129 48.543C198.723 48.2383 199.379 48.0859 200.098 48.0859C200.723 48.0859 201.289 48.1758 201.797 48.3555C202.312 48.5273 202.754 48.8086 203.121 49.1992C203.496 49.582 203.785 50.0859 203.988 50.7109C204.191 51.3359 204.293 52.0938 204.293 52.9844V61H200.895V52.9609C200.895 52.3984 200.812 51.957 200.648 51.6367C200.492 51.3086 200.262 51.0781 199.957 50.9453C199.66 50.8047 199.293 50.7344 198.855 50.7344C198.371 50.7344 197.957 50.8242 197.613 51.0039C197.277 51.1836 197.008 51.4336 196.805 51.7539C196.602 52.0664 196.453 52.4336 196.359 52.8555C196.266 53.2773 196.219 53.7305 196.219 54.2148ZM210.422 48.3203V61H207.035V48.3203H210.422ZM206.824 45.0156C206.824 44.5234 206.996 44.1172 207.34 43.7969C207.684 43.4766 208.145 43.3164 208.723 43.3164C209.293 43.3164 209.75 43.4766 210.094 43.7969C210.445 44.1172 210.621 44.5234 210.621 45.0156C210.621 45.5078 210.445 45.9141 210.094 46.2344C209.75 46.5547 209.293 46.7148 208.723 46.7148C208.145 46.7148 207.684 46.5547 207.34 46.2344C206.996 45.9141 206.824 45.5078 206.824 45.0156ZM217.512 61H214.113V47.1953C214.113 46.2344 214.301 45.4258 214.676 44.7695C215.059 44.1055 215.594 43.6055 216.281 43.2695C216.977 42.9258 217.801 42.7539 218.754 42.7539C219.066 42.7539 219.367 42.7773 219.656 42.8242C219.945 42.8633 220.227 42.9141 220.5 42.9766L220.465 45.5195C220.316 45.4805 220.16 45.4531 219.996 45.4375C219.832 45.4219 219.641 45.4141 219.422 45.4141C219.016 45.4141 218.668 45.4844 218.379 45.625C218.098 45.7578 217.883 45.957 217.734 46.2227C217.586 46.4883 217.512 46.8125 217.512 47.1953V61ZM220.043 48.3203V50.7109H212.227V48.3203H220.043ZM228.023 48.3203V50.7109H220.641V48.3203H228.023ZM222.469 45.1914H225.844V57.1797C225.844 57.5469 225.891 57.8281 225.984 58.0234C226.086 58.2188 226.234 58.3555 226.43 58.4336C226.625 58.5039 226.871 58.5391 227.168 58.5391C227.379 58.5391 227.566 58.5312 227.73 58.5156C227.902 58.4922 228.047 58.4688 228.164 58.4453L228.176 60.9297C227.887 61.0234 227.574 61.0977 227.238 61.1523C226.902 61.207 226.531 61.2344 226.125 61.2344C225.383 61.2344 224.734 61.1133 224.18 60.8711C223.633 60.6211 223.211 60.2227 222.914 59.6758C222.617 59.1289 222.469 58.4102 222.469 57.5195V45.1914Z" fill="#888888"/>
<path d="M106.688 119H99.1172L99.1641 112.672H106.688C108.25 112.672 109.57 112.297 110.648 111.547C111.742 110.797 112.57 109.68 113.133 108.195C113.711 106.695 114 104.852 114 102.664V101.188C114 99.5469 113.836 98.1094 113.508 96.875C113.195 95.625 112.727 94.5859 112.102 93.7578C111.477 92.9141 110.695 92.2812 109.758 91.8594C108.836 91.4375 107.773 91.2266 106.57 91.2266H98.9766V84.875H106.57C108.883 84.875 111 85.2734 112.922 86.0703C114.859 86.8516 116.531 87.9766 117.938 89.4453C119.359 90.8984 120.453 92.625 121.219 94.625C122 96.6094 122.391 98.8125 122.391 101.234V102.664C122.391 105.07 122 107.273 121.219 109.273C120.453 111.273 119.367 113 117.961 114.453C116.555 115.906 114.891 117.031 112.969 117.828C111.062 118.609 108.969 119 106.688 119ZM103.828 84.875V119H95.6016V84.875H103.828ZM138.586 119.469C136.523 119.469 134.68 119.148 133.055 118.508C131.43 117.852 130.055 116.953 128.93 115.812C127.82 114.672 126.969 113.359 126.375 111.875C125.797 110.391 125.508 108.82 125.508 107.164V106.273C125.508 104.414 125.766 102.695 126.281 101.117C126.797 99.5234 127.562 98.1328 128.578 96.9453C129.594 95.7578 130.867 94.8359 132.398 94.1797C133.93 93.5078 135.711 93.1719 137.742 93.1719C139.539 93.1719 141.148 93.4609 142.57 94.0391C143.992 94.6172 145.195 95.4453 146.18 96.5234C147.18 97.6016 147.938 98.9062 148.453 100.438C148.984 101.969 149.25 103.688 149.25 105.594V108.805H128.531V103.859H141.539V103.25C141.555 102.406 141.406 101.688 141.094 101.094C140.797 100.5 140.359 100.047 139.781 99.7344C139.203 99.4219 138.5 99.2656 137.672 99.2656C136.812 99.2656 136.102 99.4531 135.539 99.8281C134.992 100.203 134.562 100.719 134.25 101.375C133.953 102.016 133.742 102.758 133.617 103.602C133.492 104.445 133.43 105.336 133.43 106.273V107.164C133.43 108.102 133.555 108.953 133.805 109.719C134.07 110.484 134.445 111.141 134.93 111.688C135.43 112.219 136.023 112.633 136.711 112.93C137.414 113.227 138.211 113.375 139.102 113.375C140.18 113.375 141.242 113.172 142.289 112.766C143.336 112.359 144.234 111.688 144.984 110.75L148.57 115.016C148.055 115.75 147.32 116.461 146.367 117.148C145.43 117.836 144.305 118.398 142.992 118.836C141.68 119.258 140.211 119.469 138.586 119.469ZM161.273 113.586L166.266 93.6406H174.586L166.289 119H161.367L161.273 113.586ZM158.32 93.6406L163.242 113.586L163.195 119H158.25L149.977 93.6406H158.32ZM188.883 119.469C186.82 119.469 184.977 119.148 183.352 118.508C181.727 117.852 180.352 116.953 179.227 115.812C178.117 114.672 177.266 113.359 176.672 111.875C176.094 110.391 175.805 108.82 175.805 107.164V106.273C175.805 104.414 176.062 102.695 176.578 101.117C177.094 99.5234 177.859 98.1328 178.875 96.9453C179.891 95.7578 181.164 94.8359 182.695 94.1797C184.227 93.5078 186.008 93.1719 188.039 93.1719C189.836 93.1719 191.445 93.4609 192.867 94.0391C194.289 94.6172 195.492 95.4453 196.477 96.5234C197.477 97.6016 198.234 98.9062 198.75 100.438C199.281 101.969 199.547 103.688 199.547 105.594V108.805H178.828V103.859H191.836V103.25C191.852 102.406 191.703 101.688 191.391 101.094C191.094 100.5 190.656 100.047 190.078 99.7344C189.5 99.4219 188.797 99.2656 187.969 99.2656C187.109 99.2656 186.398 99.4531 185.836 99.8281C185.289 100.203 184.859 100.719 184.547 101.375C184.25 102.016 184.039 102.758 183.914 103.602C183.789 104.445 183.727 105.336 183.727 106.273V107.164C183.727 108.102 183.852 108.953 184.102 109.719C184.367 110.484 184.742 111.141 185.227 111.688C185.727 112.219 186.32 112.633 187.008 112.93C187.711 113.227 188.508 113.375 189.398 113.375C190.477 113.375 191.539 113.172 192.586 112.766C193.633 112.359 194.531 111.688 195.281 110.75L198.867 115.016C198.352 115.75 197.617 116.461 196.664 117.148C195.727 117.836 194.602 118.398 193.289 118.836C191.977 119.258 190.508 119.469 188.883 119.469ZM211.102 83V119H203.18V83H211.102ZM214.992 106.578V106.086C214.992 104.227 215.258 102.516 215.789 100.953C216.32 99.375 217.102 98.0078 218.133 96.8516C219.164 95.6953 220.438 94.7969 221.953 94.1562C223.469 93.5 225.219 93.1719 227.203 93.1719C229.203 93.1719 230.961 93.5 232.477 94.1562C234.008 94.7969 235.289 95.6953 236.32 96.8516C237.352 98.0078 238.133 99.375 238.664 100.953C239.195 102.516 239.461 104.227 239.461 106.086V106.578C239.461 108.422 239.195 110.133 238.664 111.711C238.133 113.273 237.352 114.641 236.32 115.812C235.289 116.969 234.016 117.867 232.5 118.508C230.984 119.148 229.234 119.469 227.25 119.469C225.266 119.469 223.508 119.148 221.977 118.508C220.445 117.867 219.164 116.969 218.133 115.812C217.102 114.641 216.32 113.273 215.789 111.711C215.258 110.133 214.992 108.422 214.992 106.578ZM222.891 106.086V106.578C222.891 107.531 222.961 108.422 223.102 109.25C223.242 110.078 223.477 110.805 223.805 111.43C224.133 112.039 224.578 112.516 225.141 112.859C225.703 113.203 226.406 113.375 227.25 113.375C228.078 113.375 228.766 113.203 229.312 112.859C229.875 112.516 230.32 112.039 230.648 111.43C230.977 110.805 231.211 110.078 231.352 109.25C231.492 108.422 231.562 107.531 231.562 106.578V106.086C231.562 105.164 231.492 104.297 231.352 103.484C231.211 102.656 230.977 101.93 230.648 101.305C230.32 100.664 229.875 100.164 229.312 99.8047C228.75 99.4453 228.047 99.2656 227.203 99.2656C226.375 99.2656 225.68 99.4453 225.117 99.8047C224.57 100.164 224.133 100.664 223.805 101.305C223.477 101.93 223.242 102.656 223.102 103.484C222.961 104.297 222.891 105.164 222.891 106.086ZM250.945 98.5156V128.75H243.047V93.6406H250.406L250.945 98.5156ZM266.508 106.016V106.508C266.508 108.352 266.297 110.062 265.875 111.641C265.453 113.219 264.828 114.594 264 115.766C263.172 116.938 262.141 117.852 260.906 118.508C259.688 119.148 258.273 119.469 256.664 119.469C255.148 119.469 253.844 119.133 252.75 118.461C251.656 117.789 250.742 116.859 250.008 115.672C249.273 114.484 248.68 113.125 248.227 111.594C247.773 110.062 247.414 108.445 247.148 106.742V106.109C247.414 104.281 247.773 102.586 248.227 101.023C248.68 99.4453 249.273 98.0703 250.008 96.8984C250.742 95.7266 251.648 94.8125 252.727 94.1562C253.82 93.5 255.125 93.1719 256.641 93.1719C258.25 93.1719 259.664 93.4766 260.883 94.0859C262.117 94.6953 263.148 95.5703 263.977 96.7109C264.82 97.8359 265.453 99.1875 265.875 100.766C266.297 102.344 266.508 104.094 266.508 106.016ZM258.609 106.508V106.016C258.609 105.031 258.539 104.133 258.398 103.32C258.258 102.492 258.031 101.773 257.719 101.164C257.422 100.555 257.023 100.086 256.523 99.7578C256.023 99.4297 255.406 99.2656 254.672 99.2656C253.828 99.2656 253.117 99.3984 252.539 99.6641C251.977 99.9141 251.523 100.305 251.18 100.836C250.852 101.352 250.617 102 250.477 102.781C250.352 103.547 250.297 104.445 250.312 105.477V107.398C250.281 108.586 250.398 109.633 250.664 110.539C250.93 111.43 251.391 112.125 252.047 112.625C252.703 113.125 253.594 113.375 254.719 113.375C255.469 113.375 256.094 113.203 256.594 112.859C257.094 112.5 257.492 112.008 257.789 111.383C258.086 110.742 258.297 110.008 258.422 109.18C258.547 108.352 258.609 107.461 258.609 106.508ZM277.992 99.0078V119H270.094V93.6406H277.5L277.992 99.0078ZM277.031 105.453L275.227 105.5C275.227 103.719 275.438 102.078 275.859 100.578C276.281 99.0781 276.906 97.7734 277.734 96.6641C278.562 95.5547 279.578 94.6953 280.781 94.0859C282 93.4766 283.406 93.1719 285 93.1719C286.109 93.1719 287.117 93.3438 288.023 93.6875C288.93 94.0156 289.711 94.5391 290.367 95.2578C291.023 95.9609 291.523 96.8828 291.867 98.0234C292.227 99.1484 292.406 100.5 292.406 102.078V119H284.508V103.086C284.508 102.008 284.383 101.195 284.133 100.648C283.898 100.102 283.555 99.7344 283.102 99.5469C282.648 99.3594 282.094 99.2656 281.438 99.2656C280.75 99.2656 280.133 99.4219 279.586 99.7344C279.039 100.047 278.57 100.484 278.18 101.047C277.805 101.594 277.516 102.242 277.312 102.992C277.125 103.742 277.031 104.562 277.031 105.453ZM291.516 105.453L289.312 105.5C289.312 103.719 289.508 102.078 289.898 100.578C290.305 99.0781 290.906 97.7734 291.703 96.6641C292.516 95.5547 293.523 94.6953 294.727 94.0859C295.93 93.4766 297.328 93.1719 298.922 93.1719C300.078 93.1719 301.141 93.3438 302.109 93.6875C303.078 94.0312 303.914 94.5859 304.617 95.3516C305.32 96.1172 305.867 97.1328 306.258 98.3984C306.648 99.6484 306.844 101.195 306.844 103.039V119H298.922V103.039C298.922 101.992 298.797 101.203 298.547 100.672C298.312 100.125 297.969 99.7578 297.516 99.5703C297.062 99.3672 296.523 99.2656 295.898 99.2656C295.148 99.2656 294.5 99.4219 293.953 99.7344C293.406 100.047 292.945 100.484 292.57 101.047C292.211 101.594 291.945 102.242 291.773 102.992C291.602 103.742 291.516 104.562 291.516 105.453ZM323.648 119.469C321.586 119.469 319.742 119.148 318.117 118.508C316.492 117.852 315.117 116.953 313.992 115.812C312.883 114.672 312.031 113.359 311.438 111.875C310.859 110.391 310.57 108.82 310.57 107.164V106.273C310.57 104.414 310.828 102.695 311.344 101.117C311.859 99.5234 312.625 98.1328 313.641 96.9453C314.656 95.7578 315.93 94.8359 317.461 94.1797C318.992 93.5078 320.773 93.1719 322.805 93.1719C324.602 93.1719 326.211 93.4609 327.633 94.0391C329.055 94.6172 330.258 95.4453 331.242 96.5234C332.242 97.6016 333 98.9062 333.516 100.438C334.047 101.969 334.312 103.688 334.312 105.594V108.805H313.594V103.859H326.602V103.25C326.617 102.406 326.469 101.688 326.156 101.094C325.859 100.5 325.422 100.047 324.844 99.7344C324.266 99.4219 323.562 99.2656 322.734 99.2656C321.875 99.2656 321.164 99.4531 320.602 99.8281C320.055 100.203 319.625 100.719 319.312 101.375C319.016 102.016 318.805 102.758 318.68 103.602C318.555 104.445 318.492 105.336 318.492 106.273V107.164C318.492 108.102 318.617 108.953 318.867 109.719C319.133 110.484 319.508 111.141 319.992 111.688C320.492 112.219 321.086 112.633 321.773 112.93C322.477 113.227 323.273 113.375 324.164 113.375C325.242 113.375 326.305 113.172 327.352 112.766C328.398 112.359 329.297 111.688 330.047 110.75L333.633 115.016C333.117 115.75 332.383 116.461 331.43 117.148C330.492 117.836 329.367 118.398 328.055 118.836C326.742 119.258 325.273 119.469 323.648 119.469ZM345.281 99.0547V119H337.383V93.6406H344.789L345.281 99.0547ZM344.344 105.453L342.492 105.5C342.492 103.562 342.727 101.836 343.195 100.32C343.664 98.7891 344.328 97.4922 345.188 96.4297C346.047 95.3672 347.07 94.5625 348.258 94.0156C349.461 93.4531 350.797 93.1719 352.266 93.1719C353.438 93.1719 354.508 93.3438 355.477 93.6875C356.461 94.0312 357.305 94.5859 358.008 95.3516C358.727 96.1172 359.273 97.1328 359.648 98.3984C360.039 99.6484 360.234 101.195 360.234 103.039V119H352.289V103.016C352.289 102 352.148 101.227 351.867 100.695C351.586 100.148 351.18 99.7734 350.648 99.5703C350.117 99.3672 349.469 99.2656 348.703 99.2656C347.891 99.2656 347.203 99.4219 346.641 99.7344C346.078 100.047 345.625 100.484 345.281 101.047C344.953 101.594 344.711 102.242 344.555 102.992C344.414 103.742 344.344 104.562 344.344 105.453ZM377.977 93.6406V99.125H362.695V93.6406H377.977ZM365.906 87.3359H373.805V110.727C373.805 111.398 373.883 111.922 374.039 112.297C374.195 112.656 374.461 112.914 374.836 113.07C375.227 113.211 375.742 113.281 376.383 113.281C376.836 113.281 377.211 113.273 377.508 113.258C377.805 113.227 378.086 113.188 378.352 113.141V118.789C377.68 119.008 376.977 119.172 376.242 119.281C375.508 119.406 374.727 119.469 373.898 119.469C372.211 119.469 370.766 119.203 369.562 118.672C368.375 118.141 367.469 117.305 366.844 116.164C366.219 115.023 365.906 113.539 365.906 111.711V87.3359ZM398.062 101.07L405.305 96.5469C406.273 95.9219 406.867 95.3359 407.086 94.7891C407.32 94.2266 407.438 93.6797 407.438 93.1484C407.438 92.5078 407.203 91.9062 406.734 91.3438C406.281 90.7656 405.641 90.4766 404.812 90.4766C404.203 90.4766 403.688 90.6172 403.266 90.8984C402.859 91.1641 402.547 91.5234 402.328 91.9766C402.125 92.4297 402.023 92.9375 402.023 93.5C402.023 94.2031 402.219 94.9141 402.609 95.6328C403 96.3516 403.516 97.1094 404.156 97.9062C404.812 98.7031 405.539 99.5781 406.336 100.531L422.391 119H413.578L400.5 104.141C399.422 102.766 398.484 101.5 397.688 100.344C396.906 99.1875 396.297 98.0625 395.859 96.9688C395.422 95.875 395.203 94.75 395.203 93.5938C395.203 91.7969 395.594 90.2109 396.375 88.8359C397.172 87.4453 398.289 86.3594 399.727 85.5781C401.18 84.7812 402.883 84.3828 404.836 84.3828C406.648 84.3828 408.219 84.7578 409.547 85.5078C410.891 86.2578 411.93 87.2578 412.664 88.5078C413.398 89.7422 413.766 91.1016 413.766 92.5859C413.766 93.6172 413.57 94.5938 413.18 95.5156C412.789 96.4375 412.25 97.2812 411.562 98.0469C410.891 98.8125 410.117 99.5078 409.242 100.133L401.414 105.594C401.102 105.984 400.844 106.383 400.641 106.789C400.453 107.18 400.312 107.578 400.219 107.984C400.141 108.391 400.102 108.828 400.102 109.297C400.102 110.109 400.273 110.828 400.617 111.453C400.961 112.062 401.414 112.539 401.977 112.883C402.555 113.227 403.18 113.398 403.852 113.398C405.117 113.398 406.336 113.125 407.508 112.578C408.695 112.016 409.758 111.227 410.695 110.211C411.633 109.195 412.375 107.984 412.922 106.578C413.469 105.172 413.742 103.625 413.742 101.938H420.352C420.352 103.781 420.164 105.539 419.789 107.211C419.43 108.867 418.828 110.398 417.984 111.805C417.156 113.211 416.039 114.445 414.633 115.508C414.555 115.555 414.406 115.648 414.188 115.789C413.984 115.914 413.836 116 413.742 116.047C412.102 117.219 410.484 118.086 408.891 118.648C407.297 119.211 405.438 119.492 403.312 119.492C401.016 119.492 399.031 119.078 397.359 118.25C395.703 117.422 394.422 116.281 393.516 114.828C392.609 113.375 392.156 111.711 392.156 109.836C392.156 108.508 392.406 107.352 392.906 106.367C393.406 105.367 394.102 104.445 394.992 103.602C395.883 102.758 396.906 101.914 398.062 101.07ZM452.906 84.875V119H444.68V84.875H452.906ZM463.172 84.875V91.2266H434.648V84.875H463.172ZM476.461 119.469C474.398 119.469 472.555 119.148 470.93 118.508C469.305 117.852 467.93 116.953 466.805 115.812C465.695 114.672 464.844 113.359 464.25 111.875C463.672 110.391 463.383 108.82 463.383 107.164V106.273C463.383 104.414 463.641 102.695 464.156 101.117C464.672 99.5234 465.438 98.1328 466.453 96.9453C467.469 95.7578 468.742 94.8359 470.273 94.1797C471.805 93.5078 473.586 93.1719 475.617 93.1719C477.414 93.1719 479.023 93.4609 480.445 94.0391C481.867 94.6172 483.07 95.4453 484.055 96.5234C485.055 97.6016 485.812 98.9062 486.328 100.438C486.859 101.969 487.125 103.688 487.125 105.594V108.805H466.406V103.859H479.414V103.25C479.43 102.406 479.281 101.688 478.969 101.094C478.672 100.5 478.234 100.047 477.656 99.7344C477.078 99.4219 476.375 99.2656 475.547 99.2656C474.688 99.2656 473.977 99.4531 473.414 99.8281C472.867 100.203 472.438 100.719 472.125 101.375C471.828 102.016 471.617 102.758 471.492 103.602C471.367 104.445 471.305 105.336 471.305 106.273V107.164C471.305 108.102 471.43 108.953 471.68 109.719C471.945 110.484 472.32 111.141 472.805 111.688C473.305 112.219 473.898 112.633 474.586 112.93C475.289 113.227 476.086 113.375 476.977 113.375C478.055 113.375 479.117 113.172 480.164 112.766C481.211 112.359 482.109 111.688 482.859 110.75L486.445 115.016C485.93 115.75 485.195 116.461 484.242 117.148C483.305 117.836 482.18 118.398 480.867 118.836C479.555 119.258 478.086 119.469 476.461 119.469ZM503.625 111.875C503.625 111.438 503.477 111.062 503.18 110.75C502.898 110.422 502.398 110.125 501.68 109.859C500.961 109.578 499.953 109.297 498.656 109.016C497.422 108.75 496.258 108.398 495.164 107.961C494.086 107.523 493.141 106.992 492.328 106.367C491.516 105.742 490.875 105 490.406 104.141C489.953 103.281 489.727 102.297 489.727 101.188C489.727 100.109 489.953 99.0938 490.406 98.1406C490.875 97.1719 491.555 96.3203 492.445 95.5859C493.352 94.8359 494.453 94.25 495.75 93.8281C497.047 93.3906 498.523 93.1719 500.18 93.1719C502.461 93.1719 504.43 93.5234 506.086 94.2266C507.742 94.9141 509.016 95.8828 509.906 97.1328C510.812 98.3672 511.266 99.7969 511.266 101.422H503.367C503.367 100.781 503.258 100.234 503.039 99.7812C502.836 99.3281 502.5 98.9844 502.031 98.75C501.562 98.5 500.938 98.375 500.156 98.375C499.609 98.375 499.109 98.4766 498.656 98.6797C498.219 98.8828 497.867 99.1641 497.602 99.5234C497.336 99.8828 497.203 100.305 497.203 100.789C497.203 101.133 497.281 101.445 497.438 101.727C497.609 101.992 497.867 102.242 498.211 102.477C498.555 102.695 498.992 102.898 499.523 103.086C500.055 103.258 500.695 103.414 501.445 103.555C503.148 103.867 504.742 104.312 506.227 104.891C507.711 105.469 508.914 106.289 509.836 107.352C510.773 108.414 511.242 109.844 511.242 111.641C511.242 112.766 510.984 113.805 510.469 114.758C509.953 115.695 509.211 116.523 508.242 117.242C507.273 117.945 506.109 118.492 504.75 118.883C503.391 119.273 501.859 119.469 500.156 119.469C497.734 119.469 495.688 119.039 494.016 118.18C492.344 117.305 491.078 116.211 490.219 114.898C489.375 113.57 488.953 112.227 488.953 110.867H496.312C496.344 111.648 496.531 112.289 496.875 112.789C497.234 113.289 497.711 113.656 498.305 113.891C498.898 114.125 499.586 114.242 500.367 114.242C501.086 114.242 501.68 114.141 502.148 113.938C502.633 113.734 503 113.461 503.25 113.117C503.5 112.758 503.625 112.344 503.625 111.875ZM528.305 93.6406V99.125H513.023V93.6406H528.305ZM516.234 87.3359H524.133V110.727C524.133 111.398 524.211 111.922 524.367 112.297C524.523 112.656 524.789 112.914 525.164 113.07C525.555 113.211 526.07 113.281 526.711 113.281C527.164 113.281 527.539 113.273 527.836 113.258C528.133 113.227 528.414 113.188 528.68 113.141V118.789C528.008 119.008 527.305 119.172 526.57 119.281C525.836 119.406 525.055 119.469 524.227 119.469C522.539 119.469 521.094 119.203 519.891 118.672C518.703 118.141 517.797 117.305 517.172 116.164C516.547 115.023 516.234 113.539 516.234 111.711V87.3359ZM539.789 93.6406V119H531.867V93.6406H539.789ZM531.398 87.1016C531.398 85.9766 531.805 85.0547 532.617 84.3359C533.43 83.6172 534.484 83.2578 535.781 83.2578C537.078 83.2578 538.133 83.6172 538.945 84.3359C539.758 85.0547 540.164 85.9766 540.164 87.1016C540.164 88.2266 539.758 89.1484 538.945 89.8672C538.133 90.5859 537.078 90.9453 535.781 90.9453C534.484 90.9453 533.43 90.5859 532.617 89.8672C531.805 89.1484 531.398 88.2266 531.398 87.1016ZM552.422 99.0547V119H544.523V93.6406H551.93L552.422 99.0547ZM551.484 105.453L549.633 105.5C549.633 103.562 549.867 101.836 550.336 100.32C550.805 98.7891 551.469 97.4922 552.328 96.4297C553.188 95.3672 554.211 94.5625 555.398 94.0156C556.602 93.4531 557.938 93.1719 559.406 93.1719C560.578 93.1719 561.648 93.3438 562.617 93.6875C563.602 94.0312 564.445 94.5859 565.148 95.3516C565.867 96.1172 566.414 97.1328 566.789 98.3984C567.18 99.6484 567.375 101.195 567.375 103.039V119H559.43V103.016C559.43 102 559.289 101.227 559.008 100.695C558.727 100.148 558.32 99.7734 557.789 99.5703C557.258 99.3672 556.609 99.2656 555.844 99.2656C555.031 99.2656 554.344 99.4219 553.781 99.7344C553.219 100.047 552.766 100.484 552.422 101.047C552.094 101.594 551.852 102.242 551.695 102.992C551.555 103.742 551.484 104.562 551.484 105.453ZM587.695 93.6406H594.867V118.016C594.867 120.359 594.328 122.344 593.25 123.969C592.172 125.609 590.664 126.852 588.727 127.695C586.805 128.555 584.555 128.984 581.977 128.984C580.836 128.984 579.672 128.836 578.484 128.539C577.297 128.258 576.188 127.836 575.156 127.273C574.125 126.711 573.258 126.016 572.555 125.188L575.859 120.547C576.5 121.266 577.305 121.875 578.273 122.375C579.242 122.891 580.383 123.148 581.695 123.148C582.836 123.148 583.789 122.945 584.555 122.539C585.336 122.133 585.93 121.539 586.336 120.758C586.742 119.992 586.945 119.062 586.945 117.969V99.6406L587.695 93.6406ZM570.844 106.625V106.133C570.844 104.211 571.078 102.461 571.547 100.883C572.031 99.2891 572.719 97.9219 573.609 96.7812C574.516 95.625 575.609 94.7344 576.891 94.1094C578.172 93.4844 579.617 93.1719 581.227 93.1719C582.961 93.1719 584.383 93.5078 585.492 94.1797C586.617 94.8359 587.516 95.7578 588.188 96.9453C588.875 98.1328 589.406 99.5234 589.781 101.117C590.172 102.695 590.5 104.398 590.766 106.227V106.812C590.5 108.531 590.133 110.156 589.664 111.688C589.211 113.203 588.617 114.547 587.883 115.719C587.148 116.891 586.227 117.812 585.117 118.484C584.023 119.141 582.711 119.469 581.18 119.469C579.586 119.469 578.148 119.148 576.867 118.508C575.602 117.867 574.516 116.969 573.609 115.812C572.719 114.656 572.031 113.297 571.547 111.734C571.078 110.172 570.844 108.469 570.844 106.625ZM578.742 106.133V106.625C578.742 107.578 578.828 108.461 579 109.273C579.188 110.086 579.469 110.805 579.844 111.43C580.219 112.039 580.68 112.516 581.227 112.859C581.789 113.203 582.445 113.375 583.195 113.375C584.336 113.375 585.258 113.133 585.961 112.648C586.664 112.164 587.172 111.477 587.484 110.586C587.797 109.695 587.93 108.648 587.883 107.445V105.594C587.914 104.562 587.844 103.656 587.672 102.875C587.5 102.078 587.227 101.414 586.852 100.883C586.492 100.352 586.008 99.9531 585.398 99.6875C584.805 99.4062 584.086 99.2656 583.242 99.2656C582.508 99.2656 581.859 99.4375 581.297 99.7812C580.734 100.125 580.266 100.609 579.891 101.234C579.516 101.844 579.227 102.57 579.023 103.414C578.836 104.242 578.742 105.148 578.742 106.133Z" fill="black"/>
<path d="M1134 0H1348C1356.28 0 1363 6.71573 1363 15V148C1363 156.284 1356.28 163 1348 163H1134V0Z" fill="#2563EB"/>
<path d="M1220.17 104.167H1276.83" stroke="white" stroke-width="5" stroke-linecap="round" stroke-linejoin="round"/>
<path d="M1240 75.8334L1245.67 81.5L1257 70.1667" stroke="white" stroke-width="5" stroke-linecap="round" stroke-linejoin="round"/>
<path d="M1268.33 58.8333H1228.67C1225.54 58.8333 1223 61.3704 1223 64.5V87.1666C1223 90.2963 1225.54 92.8333 1228.67 92.8333H1268.33C1271.46 92.8333 1274 90.2963 1274 87.1666V64.5C1274 61.3704 1271.46 58.8333 1268.33 58.8333Z" stroke="white" stroke-width="5" stroke-linecap="round" stroke-linejoin="round"/>
</svg>
